<?xml version="1.0" encoding="UTF-8" standalone="no"?>
<!-- Created with Inkscape (http://www.inkscape.org/) -->

<svg
   xmlns:dc="http://purl.org/dc/elements/1.1/"
   xmlns:cc="http://creativecommons.org/ns#"
   xmlns:rdf="http://www.w3.org/1999/02/22-rdf-syntax-ns#"
   xmlns:svg="http://www.w3.org/2000/svg"
   xmlns="http://www.w3.org/2000/svg"
   width="24"
   height="24"
   viewBox="0 0 6.3499999 6.3500002"
   version="1.1">
  <g     
     id="layer1"
     transform="translate(0,-290.64999)">
    <path
       style="fill:#000000;stroke-width:0.55553544"
       d="M 12,2 A 9.9999996,9.9999996 0 0 0 2,12 9.9999996,9.9999996 0 0 0 12,22 9.9999996,9.9999996 0 0 0 22,12 9.9999996,9.9999996 0 0 0 12,2 Z m 0.09375,2.4746094 c 0.621332,0 1.098555,0.1263853 1.431641,0.3769531 0.333085,0.2454542 0.5,0.5875716 0.5,1.0273437 0,0.2147725 -0.04845,0.4108668 -0.144532,0.5898438 -0.08968,0.178977 -0.221583,0.3330968 -0.394531,0.4609375 -0.172948,0.1278407 -0.384952,0.2299362 -0.634766,0.3066406 -0.243408,0.071591 -0.518708,0.1074219 -0.826171,0.1074219 -0.32668,0 -0.610108,-0.033132 -0.853516,-0.099609 C 10.934872,7.1725498 10.736309,7.0758521 10.576172,6.953125 10.416035,6.8303979 10.297569,6.6816759 10.220703,6.5078125 10.143837,6.3339491 10.105469,6.1412994 10.105469,5.9316406 c 0,-0.219886 0.03978,-0.4186792 0.123047,-0.5976562 0.08968,-0.1789771 0.221583,-0.3303979 0.394531,-0.453125 0.172948,-0.1278408 0.381591,-0.2272373 0.625,-0.2988282 0.249814,-0.071591 0.531834,-0.1074218 0.845703,-0.1074218 z m -0.0293,0.6914062 c -0.294652,0 -0.518143,0.063566 -0.671875,0.1914063 -0.147326,0.1278407 -0.220703,0.3015983 -0.220703,0.5214843 0,0.235227 0.06666,0.4224789 0.201172,0.5605469 0.140921,0.138068 0.377852,0.2070313 0.710937,0.2070313 0.294653,0 0.511423,-0.068218 0.652344,-0.2011719 0.140921,-0.138068 0.212891,-0.3118256 0.212891,-0.5214844 0,-0.2147724 -0.07197,-0.3939277 -0.212891,-0.5371093 C 12.601813,5.2384235 12.378322,5.1660156 12.064453,5.1660156 Z m -0.08594,2.6386719 c 0.204975,0 0.37525,0.00344 0.509765,0.013672 0.134515,0.00511 0.242901,0.018608 0.326172,0.039063 0.08327,0.020454 0.146568,0.050888 0.191406,0.091797 0.04484,0.035795 0.07985,0.082422 0.105469,0.1386718 l 4.169922,9.2187504 c 0.05124,0.112499 0.07813,0.205753 0.07813,0.277343 0.0064,0.06648 -0.01712,0.116549 -0.06836,0.152344 -0.05124,0.0358 -0.138062,0.06009 -0.259766,0.07031 -0.115299,0.01023 -0.272133,0.01563 -0.470703,0.01563 -0.19857,0 -0.358765,-0.0054 -0.480469,-0.01563 -0.115299,-0.0051 -0.203523,-0.01591 -0.267578,-0.03125 -0.05765,-0.02045 -0.102738,-0.04549 -0.134766,-0.07617 -0.02562,-0.03068 -0.0525,-0.06921 -0.07813,-0.115235 L 14.533203,15.167969 H 9.3652344 l -1.0195313,2.384765 c -0.019216,0.04602 -0.044144,0.08725 -0.076172,0.123047 -0.032027,0.03068 -0.080476,0.05842 -0.1445312,0.08398 -0.057649,0.02045 -0.1444669,0.03665 -0.2597656,0.04687 -0.1088933,0.01023 -0.2522871,0.01563 -0.4316406,0.01563 -0.1857591,0 -0.3392333,-0.0081 -0.4609376,-0.02344 -0.1152987,-0.01023 -0.1987561,-0.03452 -0.25,-0.07031 -0.044838,-0.0358 -0.068359,-0.08587 -0.068359,-0.152344 0.00641,-0.07159 0.036647,-0.162891 0.087891,-0.275391 L 10.912109,8.0800781 c 0.02562,-0.05625 0.05727,-0.1028764 0.0957,-0.1386719 0.04484,-0.035795 0.104775,-0.06353 0.181641,-0.083984 0.08327,-0.020455 0.18689,-0.033949 0.308594,-0.039063 0.12811,-0.010227 0.288304,-0.013672 0.480469,-0.013672 z M 11.919922,9.1699219 9.7773438,14.117188 H 14.101562 L 11.929688,9.1699219 Z"
       transform="matrix(0.26458334,0,0,0.26458334,0,290.64999)"
       id="path3680"
       />
  </g>
</svg>
