<?xml version="1.0" encoding="UTF-8" standalone="no"?>
<!-- Created with Inkscape (http://www.inkscape.org/) -->

<svg
   xmlns:dc="http://purl.org/dc/elements/1.1/"
   xmlns:cc="http://creativecommons.org/ns#"
   xmlns:rdf="http://www.w3.org/1999/02/22-rdf-syntax-ns#"
   xmlns:svg="http://www.w3.org/2000/svg"
   xmlns="http://www.w3.org/2000/svg"
   xmlns:sodipodi="http://sodipodi.sourceforge.net/DTD/sodipodi-0.dtd"
   xmlns:inkscape="http://www.inkscape.org/namespaces/inkscape"
   width="24"
   height="24"
   viewBox="0 0 6.3499999 6.3500002"
   version="1.1"
   id="svg3714"
   sodipodi:docname="avatar-e.svg"
   inkscape:version="0.92.0 r15299">
  <defs
     id="defs3708" />
  <sodipodi:namedview
     id="base"
     pagecolor="#ffffff"
     bordercolor="#666666"
     borderopacity="1.0"
     inkscape:pageopacity="0.0"
     inkscape:pageshadow="2"
     inkscape:zoom="11.2"
     inkscape:cx="16.53859"
     inkscape:cy="7.9096057"
     inkscape:document-units="px"
     inkscape:current-layer="layer1"
     showgrid="false"
     units="px"
     inkscape:window-width="943"
     inkscape:window-height="807"
     inkscape:window-x="589"
     inkscape:window-y="106"
     inkscape:window-maximized="0"
     showguides="true"
     inkscape:guide-bbox="true">
    <sodipodi:guide
       position="3.175,3.175"
       orientation="-0.70710678,0.70710678"
       id="guide3783"
       inkscape:locked="false"
       inkscape:label=""
       inkscape:color="rgb(0,0,255)" />
    <sodipodi:guide
       position="3.175,3.175"
       orientation="1,0"
       id="guide3787"
       inkscape:locked="false"
       inkscape:label=""
       inkscape:color="rgb(0,0,255)" />
    <sodipodi:guide
       position="3.175,3.175"
       orientation="0,1"
       id="guide3789"
       inkscape:locked="false"
       inkscape:label=""
       inkscape:color="rgb(0,0,255)" />
    <sodipodi:guide
       position="3.175,3.175"
       orientation="0.70710678,0.70710678"
       id="guide3791"
       inkscape:locked="false"
       inkscape:label=""
       inkscape:color="rgb(0,0,255)" />
  </sodipodi:namedview>
  <metadata
     id="metadata3711">
    <rdf:RDF>
      <cc:Work
         rdf:about="">
        <dc:format>image/svg+xml</dc:format>
        <dc:type
           rdf:resource="http://purl.org/dc/dcmitype/StillImage" />
        <dc:title></dc:title>
      </cc:Work>
    </rdf:RDF>
  </metadata>
  <g
     inkscape:label="Layer 1"
     inkscape:groupmode="layer"
     id="layer1"
     transform="translate(0,-290.64999)">
    <path
       style="fill:#000000;stroke-width:0.55553544"
       d="M 12,2 A 9.9999996,9.9999996 0 0 0 2,12 9.9999996,9.9999996 0 0 0 12,22 9.9999996,9.9999996 0 0 0 22,12 9.9999996,9.9999996 0 0 0 12,2 Z M 8.9609375,6.0449219 h 5.9003905 c 0.05124,0 0.09633,0.01087 0.134766,0.035156 0.04484,0.024286 0.07985,0.064497 0.105468,0.1191407 0.02562,0.054643 0.04383,0.1239835 0.05664,0.2089843 0.01922,0.078929 0.0293,0.1793516 0.0293,0.3007813 0,0.1092867 -0.01008,0.2060148 -0.0293,0.2910156 -0.01281,0.078929 -0.03102,0.1465285 -0.05664,0.2011719 -0.02562,0.048572 -0.06063,0.085089 -0.105468,0.109375 -0.03843,0.024286 -0.08352,0.037109 -0.134766,0.037109 H 10 v 3.6972658 h 4.169922 c 0.05124,0 0.09438,0.01456 0.132812,0.04492 0.04484,0.02429 0.0818,0.0608 0.107422,0.109375 0.03203,0.04857 0.0536,0.116171 0.06641,0.201172 0.01281,0.085 0.01953,0.18347 0.01953,0.298828 0,0.109286 -0.0067,0.204274 -0.01953,0.283203 -0.01281,0.07893 -0.03438,0.142834 -0.06641,0.191406 -0.02562,0.04857 -0.06258,0.08509 -0.107422,0.109375 -0.03843,0.01821 -0.08157,0.02734 -0.132812,0.02734 H 10 v 4.216797 h 4.927734 c 0.05124,0 0.09633,0.01087 0.134766,0.03516 0.04484,0.02429 0.08321,0.0645 0.115234,0.119141 0.03203,0.04857 0.05555,0.116171 0.06836,0.201171 0.01281,0.07893 0.01758,0.179352 0.01758,0.300782 0,0.109286 -0.0048,0.206015 -0.01758,0.291015 -0.01281,0.07893 -0.03633,0.144576 -0.06836,0.199219 -0.03203,0.05464 -0.0704,0.09485 -0.115234,0.119141 -0.03843,0.02429 -0.08352,0.03711 -0.134766,0.03711 H 8.9609375 c -0.1473262,0 -0.2873598,-0.04565 -0.421875,-0.136719 C 8.4109528,17.596216 8.3457031,17.428194 8.3457031,17.191406 V 6.6816406 c 0,-0.2367879 0.06525,-0.4011152 0.1933594,-0.4921875 0.1345152,-0.097144 0.2745488,-0.1445312 0.421875,-0.1445312 z"
       transform="matrix(0.26458334,0,0,0.26458334,0,290.64999)"
       id="path3680"
       inkscape:connector-curvature="0" />
  </g>
</svg>
