<?xml version="1.0" encoding="UTF-8" standalone="no"?>
<!-- Created with Inkscape (http://www.inkscape.org/) -->

<svg
   xmlns:dc="http://purl.org/dc/elements/1.1/"
   xmlns:cc="http://creativecommons.org/ns#"
   xmlns:rdf="http://www.w3.org/1999/02/22-rdf-syntax-ns#"
   xmlns:svg="http://www.w3.org/2000/svg"
   xmlns="http://www.w3.org/2000/svg"
   xmlns:sodipodi="http://sodipodi.sourceforge.net/DTD/sodipodi-0.dtd"
   xmlns:inkscape="http://www.inkscape.org/namespaces/inkscape"
   width="24"
   height="24"
   viewBox="0 0 6.3499999 6.3500002"
   version="1.1"
   id="svg3714"
   sodipodi:docname="avatar-z.svg"
   inkscape:version="0.92.0 r15299">
  <defs
     id="defs3708" />
  <sodipodi:namedview
     id="base"
     pagecolor="#ffffff"
     bordercolor="#666666"
     borderopacity="1.0"
     inkscape:pageopacity="0.0"
     inkscape:pageshadow="2"
     inkscape:zoom="16"
     inkscape:cx="19.8316"
     inkscape:cy="4.3649707"
     inkscape:document-units="px"
     inkscape:current-layer="layer1"
     showgrid="false"
     units="px"
     inkscape:window-width="943"
     inkscape:window-height="807"
     inkscape:window-x="589"
     inkscape:window-y="106"
     inkscape:window-maximized="0"
     showguides="true"
     inkscape:guide-bbox="true">
    <sodipodi:guide
       position="3.175,3.175"
       orientation="-0.70710678,0.70710678"
       id="guide3783"
       inkscape:locked="false"
       inkscape:label=""
       inkscape:color="rgb(0,0,255)" />
    <sodipodi:guide
       position="3.175,3.175"
       orientation="1,0"
       id="guide3787"
       inkscape:locked="false"
       inkscape:label=""
       inkscape:color="rgb(0,0,255)" />
    <sodipodi:guide
       position="3.175,3.175"
       orientation="0,1"
       id="guide3789"
       inkscape:locked="false"
       inkscape:label=""
       inkscape:color="rgb(0,0,255)" />
    <sodipodi:guide
       position="3.175,3.175"
       orientation="0.70710678,0.70710678"
       id="guide3791"
       inkscape:locked="false"
       inkscape:label=""
       inkscape:color="rgb(0,0,255)" />
  </sodipodi:namedview>
  <metadata
     id="metadata3711">
    <rdf:RDF>
      <cc:Work
         rdf:about="">
        <dc:format>image/svg+xml</dc:format>
        <dc:type
           rdf:resource="http://purl.org/dc/dcmitype/StillImage" />
        <dc:title></dc:title>
      </cc:Work>
    </rdf:RDF>
  </metadata>
  <g
     inkscape:label="Layer 1"
     inkscape:groupmode="layer"
     id="layer1"
     transform="translate(0,-290.64999)">
    <path
       style="fill:#000000;stroke-width:0.55553544"
       d="M 12,2 A 9.9999996,9.9999996 0 0 0 2,12 9.9999996,9.9999996 0 0 0 12,22 9.9999996,9.9999996 0 0 0 22,12 9.9999996,9.9999996 0 0 0 12,2 Z M 8.4511719,6.0449219 h 6.9179691 c 0.172948,0 0.308214,0.047388 0.404297,0.1445312 0.102487,0.091072 0.154296,0.2354 0.154296,0.4296875 v 0.3535156 c 0,0.097144 -0.0067,0.1866958 -0.01953,0.265625 -0.01281,0.072858 -0.03633,0.1476333 -0.06836,0.2265626 -0.03203,0.078929 -0.07516,0.1647871 -0.132813,0.2558593 -0.05124,0.091072 -0.123214,0.1969297 -0.21289,0.3183594 L 9.7871094,16.507812 h 6.0722656 c 0.108893,0 0.192351,0.05303 0.25,0.15625 0.05765,0.103216 0.08594,0.272978 0.08594,0.509766 0,0.115358 -0.0048,0.215781 -0.01758,0.300781 -0.01281,0.07893 -0.03633,0.144576 -0.06836,0.199219 -0.02562,0.05464 -0.06063,0.09485 -0.105469,0.119141 -0.03843,0.02429 -0.08688,0.03711 -0.144531,0.03711 H 8.5195312 c -0.1665426,0 -0.3018091,-0.04934 -0.4042968,-0.146484 C 8.0127466,17.58645 7.9609375,17.431252 7.9609375,17.21875 v -0.335938 c 0,-0.07893 0.00336,-0.151963 0.00977,-0.21875 0.012811,-0.06679 0.036332,-0.138079 0.068359,-0.210937 0.032027,-0.07893 0.077116,-0.162834 0.1347656,-0.253906 0.057649,-0.09714 0.1276662,-0.21039 0.2109375,-0.337891 L 14.121094,7.3554688 H 8.4511719 c -0.064055,0 -0.117271,-0.01087 -0.1621094,-0.035156 C 8.2442241,7.2960266 8.2058556,7.2595094 8.1738281,7.2109375 8.1482062,7.1562941 8.1280453,7.0886949 8.1152344,7.0097656 8.1024234,6.9247648 8.0957031,6.8280367 8.0957031,6.71875 c 0,-0.1214297 0.00672,-0.2255461 0.019531,-0.3105469 0.012811,-0.085001 0.032972,-0.154341 0.058594,-0.2089843 0.032027,-0.054643 0.070396,-0.094855 0.1152344,-0.1191407 0.044838,-0.024286 0.098054,-0.035156 0.1621094,-0.035156 z"
       transform="matrix(0.26458334,0,0,0.26458334,0,290.64999)"
       id="path3680"
       inkscape:connector-curvature="0" />
  </g>
</svg>
