<?xml version="1.0" encoding="UTF-8" standalone="no"?>
<!-- Created with Inkscape (http://www.inkscape.org/) -->

<svg
   xmlns:dc="http://purl.org/dc/elements/1.1/"
   xmlns:cc="http://creativecommons.org/ns#"
   xmlns:rdf="http://www.w3.org/1999/02/22-rdf-syntax-ns#"
   xmlns:svg="http://www.w3.org/2000/svg"
   xmlns="http://www.w3.org/2000/svg"
   xmlns:sodipodi="http://sodipodi.sourceforge.net/DTD/sodipodi-0.dtd"
   xmlns:inkscape="http://www.inkscape.org/namespaces/inkscape"
   width="24"
   height="24"
   viewBox="0 0 6.3499999 6.3500002"
   version="1.1"
   id="svg3714"
   sodipodi:docname="avatar-n.svg"
   inkscape:version="0.92.0 r15299">
  <defs
     id="defs3708" />
  <sodipodi:namedview
     id="base"
     pagecolor="#ffffff"
     bordercolor="#666666"
     borderopacity="1.0"
     inkscape:pageopacity="0.0"
     inkscape:pageshadow="2"
     inkscape:zoom="11.2"
     inkscape:cx="16.53859"
     inkscape:cy="7.9096057"
     inkscape:document-units="px"
     inkscape:current-layer="layer1"
     showgrid="false"
     units="px"
     inkscape:window-width="943"
     inkscape:window-height="807"
     inkscape:window-x="589"
     inkscape:window-y="106"
     inkscape:window-maximized="0"
     showguides="true"
     inkscape:guide-bbox="true">
    <sodipodi:guide
       position="3.175,3.175"
       orientation="-0.70710678,0.70710678"
       id="guide3783"
       inkscape:locked="false"
       inkscape:label=""
       inkscape:color="rgb(0,0,255)" />
    <sodipodi:guide
       position="3.175,3.175"
       orientation="1,0"
       id="guide3787"
       inkscape:locked="false"
       inkscape:label=""
       inkscape:color="rgb(0,0,255)" />
    <sodipodi:guide
       position="3.175,3.175"
       orientation="0,1"
       id="guide3789"
       inkscape:locked="false"
       inkscape:label=""
       inkscape:color="rgb(0,0,255)" />
    <sodipodi:guide
       position="3.175,3.175"
       orientation="0.70710678,0.70710678"
       id="guide3791"
       inkscape:locked="false"
       inkscape:label=""
       inkscape:color="rgb(0,0,255)" />
  </sodipodi:namedview>
  <metadata
     id="metadata3711">
    <rdf:RDF>
      <cc:Work
         rdf:about="">
        <dc:format>image/svg+xml</dc:format>
        <dc:type
           rdf:resource="http://purl.org/dc/dcmitype/StillImage" />
        <dc:title></dc:title>
      </cc:Work>
    </rdf:RDF>
  </metadata>
  <g
     inkscape:label="Layer 1"
     inkscape:groupmode="layer"
     id="layer1"
     transform="translate(0,-290.64999)">
    <path
       style="fill:#000000;stroke-width:0.55553544"
       d="M 12,2 A 9.9999996,9.9999996 0 0 0 2,12 9.9999996,9.9999996 0 0 0 12,22 9.9999996,9.9999996 0 0 0 22,12 9.9999996,9.9999996 0 0 0 12,2 Z m 3.865234,4.0175781 c 0.140921,0 0.262747,0.00544 0.365235,0.017578 0.102488,0.012143 0.182585,0.034096 0.240234,0.064453 0.05765,0.024286 0.09938,0.053415 0.125,0.089844 0.02562,0.036429 0.03711,0.07664 0.03711,0.1191407 V 17.183594 c 0,0.121429 -0.02157,0.223593 -0.06641,0.308594 -0.03843,0.085 -0.0936,0.154341 -0.164062,0.208984 -0.06405,0.05464 -0.137432,0.09485 -0.220703,0.11914 -0.08327,0.02429 -0.166729,0.03711 -0.25,0.03711 h -0.527344 c -0.166543,0 -0.31525,-0.01652 -0.443359,-0.04687 -0.121705,-0.03643 -0.240171,-0.09664 -0.355469,-0.181641 -0.108894,-0.09107 -0.220639,-0.213447 -0.335938,-0.365234 -0.108893,-0.151787 -0.230719,-0.345243 -0.365234,-0.582031 L 9.984375,9.9785156 C 9.7793995,9.632441 9.570756,9.2709633 9.359375,8.8945312 9.1543995,8.5120277 8.9625567,8.1414207 8.7832031,7.7832031 h -0.019531 c 0.012811,0.4371469 0.022891,0.8844825 0.029297,1.3398438 0.00641,0.4553613 0.00977,0.9081321 0.00977,1.3574221 v 7.111328 c 0,0.0425 -0.013441,0.08641 -0.039063,0.128906 -0.025622,0.03643 -0.070711,0.06556 -0.1347657,0.08984 -0.057649,0.01821 -0.1377466,0.03473 -0.2402343,0.04687 -0.096082,0.01821 -0.2193153,0.02734 -0.3730469,0.02734 -0.1537316,0 -0.2822779,-0.0091 -0.3847656,-0.02734 -0.096082,-0.01214 -0.1728194,-0.02866 -0.2304688,-0.04687 -0.057649,-0.02429 -0.099378,-0.05342 -0.125,-0.08984 -0.025622,-0.0425 -0.039063,-0.08641 -0.039063,-0.128906 V 6.71875 c 0,-0.2428594 0.070017,-0.416316 0.2109375,-0.5195312 C 7.5881863,6.0960035 7.7416605,6.0449219 7.9082031,6.0449219 h 0.7890625 c 0.1857591,0 0.3392333,0.014564 0.4609375,0.044922 0.1281097,0.030357 0.2398552,0.081439 0.3359375,0.1542968 C 9.5966284,6.310927 9.6935263,6.4096082 9.7832031,6.5371094 9.8792854,6.6585391 9.9809505,6.811784 10.089844,7 l 3.017578,5.173828 c 0.185759,0.315717 0.364161,0.626113 0.537109,0.929688 0.172948,0.297502 0.339863,0.591381 0.5,0.882812 0.160137,0.291431 0.316972,0.579875 0.470703,0.865234 0.160138,0.279289 0.316972,0.560344 0.470704,0.845704 h 0.0098 c -0.01281,-0.479648 -0.02289,-0.976112 -0.0293,-1.492188 V 12.701172 6.3085938 c 0,-0.0425 0.01344,-0.082712 0.03906,-0.1191407 0.02562,-0.036429 0.06735,-0.065558 0.125,-0.089844 0.06405,-0.030357 0.144152,-0.05231 0.240234,-0.064453 0.102488,-0.012143 0.234394,-0.017578 0.394531,-0.017578 z"
       transform="matrix(0.26458334,0,0,0.26458334,0,290.64999)"
       id="path3680"
       inkscape:connector-curvature="0" />
  </g>
</svg>
