<?xml version="1.0" encoding="UTF-8" standalone="no"?>
<!-- Created with Inkscape (http://www.inkscape.org/) -->

<svg
   xmlns:dc="http://purl.org/dc/elements/1.1/"
   xmlns:cc="http://creativecommons.org/ns#"
   xmlns:rdf="http://www.w3.org/1999/02/22-rdf-syntax-ns#"
   xmlns:svg="http://www.w3.org/2000/svg"
   xmlns="http://www.w3.org/2000/svg"
   xmlns:sodipodi="http://sodipodi.sourceforge.net/DTD/sodipodi-0.dtd"
   xmlns:inkscape="http://www.inkscape.org/namespaces/inkscape"
   width="24"
   height="24"
   viewBox="0 0 6.3499999 6.3500002"
   version="1.1"
   id="svg3714"
   inkscape:version="0.92.0 r15299"
   sodipodi:docname="avatar-b.svg">
  <defs
     id="defs3708" />
  <sodipodi:namedview
     id="base"
     pagecolor="#ffffff"
     bordercolor="#666666"
     borderopacity="1.0"
     inkscape:pageopacity="0.0"
     inkscape:pageshadow="2"
     inkscape:zoom="2.8"
     inkscape:cx="15.985892"
     inkscape:cy="-2.9617476"
     inkscape:document-units="px"
     inkscape:current-layer="layer1"
     showgrid="false"
     units="px"
     inkscape:window-width="630"
     inkscape:window-height="405"
     inkscape:window-x="156"
     inkscape:window-y="156"
     inkscape:window-maximized="0" />
  <metadata
     id="metadata3711">
    <rdf:RDF>
      <cc:Work
         rdf:about="">
        <dc:format>image/svg+xml</dc:format>
        <dc:type
           rdf:resource="http://purl.org/dc/dcmitype/StillImage" />
        <dc:title></dc:title>
      </cc:Work>
    </rdf:RDF>
  </metadata>
  <g
     inkscape:label="Layer 1"
     inkscape:groupmode="layer"
     id="layer1"
     transform="translate(0,-290.64999)">
    <path
       style="fill:#000000;stroke-width:0.14698541"
       d="m 3.1750001,291.17915 a 2.6458334,2.6458334 0 0 0 -2.64583343,2.64583 2.6458334,2.6458334 0 0 0 2.64583343,2.64584 2.6458334,2.6458334 0 0 0 2.6458333,-2.64584 2.6458334,2.6458334 0 0 0 -2.6458333,-2.64583 z m -0.7978842,1.07022 h 0.7472413 c 0.196595,0 0.3577606,0.0174 0.4831747,0.0527 0.1254141,0.0353 0.2295977,0.087 0.3126422,0.15451 0.084739,0.0675 0.1483165,0.15006 0.1906861,0.24805 0.04237,0.098 0.063562,0.2091 0.063562,0.33279 0,0.0739 -0.00926,0.14441 -0.027905,0.21188 -0.018643,0.0675 -0.046431,0.13027 -0.083716,0.1881 -0.03559,0.0562 -0.081531,0.10643 -0.1374592,0.15141 -0.054233,0.045 -0.1169215,0.0822 -0.1881024,0.11111 0.089824,0.0161 0.1737043,0.0455 0.2516643,0.0889 0.07796,0.0418 0.1459825,0.0959 0.2036051,0.16175 0.059317,0.0659 0.1056306,0.14264 0.1395264,0.23099 0.033896,0.0883 0.050643,0.18595 0.050643,0.29197 0,0.098 -0.013192,0.1888 -0.040308,0.27234 -0.025421,0.0819 -0.0621,0.15583 -0.1095539,0.22169 -0.047454,0.0659 -0.1048078,0.12332 -0.1725994,0.17312 -0.066097,0.0498 -0.1416034,0.0918 -0.2263428,0.12557 -0.083044,0.0337 -0.1731481,0.0593 -0.2697509,0.077 -0.094908,0.0161 -0.2039094,0.0243 -0.3276286,0.0243 H 2.3771159 c -0.03898,0 -0.076031,-0.0121 -0.1116211,-0.0362 -0.033896,-0.0257 -0.05116,-0.0702 -0.05116,-0.13281 v -2.78071 c 0,-0.0626 0.017264,-0.10612 0.05116,-0.13022 0.035591,-0.0257 0.072641,-0.0382 0.1116211,-0.0382 z m 0.2697509,0.33745 v 1.00924 h 0.498161 c 0.1135504,0 0.2049155,-0.0135 0.2744017,-0.0408 0.069486,-0.0289 0.127357,-0.0666 0.1731161,-0.11317 0.045759,-0.0482 0.078365,-0.10375 0.098702,-0.1664 0.022032,-0.0643 0.033073,-0.12993 0.033073,-0.1974 0,-0.0755 -0.011041,-0.1436 -0.033073,-0.20464 -0.022032,-0.061 -0.056416,-0.11275 -0.1038695,-0.15451 -0.047454,-0.0434 -0.1092531,-0.0762 -0.1855185,-0.0987 -0.076265,-0.0225 -0.1774097,-0.0336 -0.3028238,-0.0336 z m 0,1.33945 v 1.09864 h 0.6351035 c 0.099992,0 0.187429,-0.0111 0.2619994,-0.0336 0.074571,-0.0225 0.139926,-0.0553 0.1958539,-0.0987 0.057622,-0.045 0.1026744,-0.10054 0.1348753,-0.1664 0.032201,-0.0659 0.048059,-0.14218 0.048059,-0.22893 0,-0.0932 -0.015859,-0.17478 -0.048059,-0.24546 -0.030506,-0.0707 -0.076447,-0.13009 -0.1374593,-0.17828 -0.059317,-0.0482 -0.1348245,-0.0844 -0.2263428,-0.10852 -0.089823,-0.0257 -0.2032701,-0.0388 -0.3405476,-0.0388 z"
       id="circle3701"
       inkscape:connector-curvature="0" />
  </g>
</svg>
