<?xml version="1.0" encoding="UTF-8" standalone="no"?>
<!-- Created with Inkscape (http://www.inkscape.org/) -->

<svg
   xmlns:dc="http://purl.org/dc/elements/1.1/"
   xmlns:cc="http://creativecommons.org/ns#"
   xmlns:rdf="http://www.w3.org/1999/02/22-rdf-syntax-ns#"
   xmlns:svg="http://www.w3.org/2000/svg"
   xmlns="http://www.w3.org/2000/svg"
   xmlns:sodipodi="http://sodipodi.sourceforge.net/DTD/sodipodi-0.dtd"
   xmlns:inkscape="http://www.inkscape.org/namespaces/inkscape"
   width="24"
   height="24"
   viewBox="0 0 6.3499999 6.3500002"
   version="1.1"
   id="svg3714"
   sodipodi:docname="avatar-g.svg"
   inkscape:version="0.92.0 r15299">
  <defs
     id="defs3708" />
  <sodipodi:namedview
     id="base"
     pagecolor="#ffffff"
     bordercolor="#666666"
     borderopacity="1.0"
     inkscape:pageopacity="0.0"
     inkscape:pageshadow="2"
     inkscape:zoom="11.2"
     inkscape:cx="16.53859"
     inkscape:cy="7.9096057"
     inkscape:document-units="px"
     inkscape:current-layer="layer1"
     showgrid="false"
     units="px"
     inkscape:window-width="943"
     inkscape:window-height="807"
     inkscape:window-x="589"
     inkscape:window-y="106"
     inkscape:window-maximized="0"
     showguides="true"
     inkscape:guide-bbox="true">
    <sodipodi:guide
       position="3.175,3.175"
       orientation="-0.70710678,0.70710678"
       id="guide3783"
       inkscape:locked="false"
       inkscape:label=""
       inkscape:color="rgb(0,0,255)" />
    <sodipodi:guide
       position="3.175,3.175"
       orientation="1,0"
       id="guide3787"
       inkscape:locked="false"
       inkscape:label=""
       inkscape:color="rgb(0,0,255)" />
    <sodipodi:guide
       position="3.175,3.175"
       orientation="0,1"
       id="guide3789"
       inkscape:locked="false"
       inkscape:label=""
       inkscape:color="rgb(0,0,255)" />
    <sodipodi:guide
       position="3.175,3.175"
       orientation="0.70710678,0.70710678"
       id="guide3791"
       inkscape:locked="false"
       inkscape:label=""
       inkscape:color="rgb(0,0,255)" />
  </sodipodi:namedview>
  <metadata
     id="metadata3711">
    <rdf:RDF>
      <cc:Work
         rdf:about="">
        <dc:format>image/svg+xml</dc:format>
        <dc:type
           rdf:resource="http://purl.org/dc/dcmitype/StillImage" />
        <dc:title></dc:title>
      </cc:Work>
    </rdf:RDF>
  </metadata>
  <g
     inkscape:label="Layer 1"
     inkscape:groupmode="layer"
     id="layer1"
     transform="translate(0,-290.64999)">
    <path
       style="fill:#000000;stroke-width:0.55553544"
       d="M 12,2 A 9.9999996,9.9999996 0 0 0 2,12 9.9999996,9.9999996 0 0 0 12,22 9.9999996,9.9999996 0 0 0 22,12 9.9999996,9.9999996 0 0 0 12,2 Z m 0.253906,3.8808594 c 0.474006,0 0.919581,0.038258 1.335938,0.1171875 0.416356,0.078929 0.785194,0.1739164 1.105468,0.2832031 0.32668,0.1032152 0.59862,0.218202 0.816407,0.3457031 0.224192,0.1214297 0.377666,0.221852 0.460937,0.3007813 0.08327,0.078929 0.141801,0.1702222 0.173828,0.2734375 0.03203,0.1032152 0.04687,0.251025 0.04687,0.4453125 0,0.1153582 -0.0067,0.2194746 -0.01953,0.3105468 -0.01281,0.085001 -0.03102,0.1580352 -0.05664,0.21875 -0.02562,0.054643 -0.05727,0.094855 -0.0957,0.1191407 -0.03843,0.024286 -0.08016,0.035156 -0.125,0.035156 -0.07686,0 -0.205412,-0.056517 -0.384765,-0.171875 C 15.332365,8.0428449 15.092073,7.9150348 14.791016,7.7753906 14.489958,7.6357465 14.12784,7.5079363 13.705078,7.3925781 13.288722,7.2772199 12.793291,7.21875 12.216797,7.21875 c -0.685387,0 -1.301237,0.1186809 -1.845703,0.3554688 -0.5444665,0.2367878 -1.0048891,0.5654425 -1.3828128,0.984375 -0.3779236,0.4189324 -0.6700244,0.9153964 -0.875,1.4921872 -0.19857,0.576791 -0.2988281,1.203019 -0.2988281,1.876953 0,0.752864 0.1103385,1.421044 0.328125,2.003907 0.224192,0.582862 0.5311404,1.073891 0.921875,1.474609 0.3907346,0.400718 0.8545174,0.705679 1.3925779,0.912109 0.544467,0.206431 1.140156,0.308594 1.78711,0.308594 0.384329,0 0.773328,-0.04195 1.164062,-0.126953 0.39714,-0.09107 0.764025,-0.224318 1.103516,-0.400391 v -3.433593 h -2.882813 c -0.108893,0 -0.190397,-0.05304 -0.248047,-0.15625 -0.05124,-0.103216 -0.07813,-0.263849 -0.07813,-0.482422 0,-0.115358 0.0067,-0.212087 0.01953,-0.291016 0.01281,-0.085 0.03297,-0.150647 0.05859,-0.199219 0.03203,-0.05464 0.06704,-0.09485 0.105469,-0.11914 0.03843,-0.02429 0.08493,-0.03711 0.142578,-0.03711 h 3.949219 c 0.07046,0 0.14243,0.01282 0.212891,0.03711 0.07046,0.02429 0.133757,0.0608 0.191406,0.109375 0.05765,0.04857 0.102738,0.114218 0.134766,0.199218 0.03203,0.085 0.04687,0.183683 0.04687,0.292969 v 4.488281 c 0,0.157859 -0.02829,0.294799 -0.08594,0.410157 -0.05765,0.115358 -0.179475,0.219474 -0.365234,0.310547 -0.185759,0.085 -0.426051,0.178034 -0.720703,0.28125 -0.294653,0.103215 -0.598241,0.192767 -0.91211,0.265625 -0.313869,0.07286 -0.630897,0.127633 -0.951172,0.164062 -0.320274,0.03643 -0.637303,0.05469 -0.951172,0.05469 -0.960822,0 -1.820324,-0.140634 -2.5761715,-0.419922 C 8.8457152,17.288859 8.2068904,16.885429 7.6816406,16.363281 7.1627963,15.841134 6.7656702,15.214906 6.4902344,14.486328 6.2147985,13.75775 6.0761719,12.945455 6.0761719,12.046875 c 0,-0.935009 0.1467539,-1.78208 0.4414062,-2.5410156 C 6.8186359,8.7469238 7.239283,8.0987437 7.7773438,7.5644531 8.32181,7.0301625 8.9707152,6.6176031 9.7265625,6.3261719 10.488815,6.0286691 11.331516,5.8808594 12.253906,5.8808594 Z"
       transform="matrix(0.26458334,0,0,0.26458334,0,290.64999)"
       id="path3680"
       inkscape:connector-curvature="0" />
  </g>
</svg>
