<?xml version="1.0" encoding="UTF-8" standalone="no"?>
<!-- Created with Inkscape (http://www.inkscape.org/) -->

<svg
   xmlns:dc="http://purl.org/dc/elements/1.1/"
   xmlns:cc="http://creativecommons.org/ns#"
   xmlns:rdf="http://www.w3.org/1999/02/22-rdf-syntax-ns#"
   xmlns:svg="http://www.w3.org/2000/svg"
   xmlns="http://www.w3.org/2000/svg"
   xmlns:sodipodi="http://sodipodi.sourceforge.net/DTD/sodipodi-0.dtd"
   xmlns:inkscape="http://www.inkscape.org/namespaces/inkscape"
   width="24"
   height="24"
   viewBox="0 0 6.3499999 6.3500002"
   version="1.1"
   id="svg3714"
   sodipodi:docname="avatar-o.svg"
   inkscape:version="0.92.0 r15299">
  <defs
     id="defs3708" />
  <sodipodi:namedview
     id="base"
     pagecolor="#ffffff"
     bordercolor="#666666"
     borderopacity="1.0"
     inkscape:pageopacity="0.0"
     inkscape:pageshadow="2"
     inkscape:zoom="11.2"
     inkscape:cx="16.53859"
     inkscape:cy="7.9096057"
     inkscape:document-units="px"
     inkscape:current-layer="layer1"
     showgrid="false"
     units="px"
     inkscape:window-width="943"
     inkscape:window-height="807"
     inkscape:window-x="589"
     inkscape:window-y="106"
     inkscape:window-maximized="0"
     showguides="true"
     inkscape:guide-bbox="true">
    <sodipodi:guide
       position="3.175,3.175"
       orientation="-0.70710678,0.70710678"
       id="guide3783"
       inkscape:locked="false"
       inkscape:label=""
       inkscape:color="rgb(0,0,255)" />
    <sodipodi:guide
       position="3.175,3.175"
       orientation="1,0"
       id="guide3787"
       inkscape:locked="false"
       inkscape:label=""
       inkscape:color="rgb(0,0,255)" />
    <sodipodi:guide
       position="3.175,3.175"
       orientation="0,1"
       id="guide3789"
       inkscape:locked="false"
       inkscape:label=""
       inkscape:color="rgb(0,0,255)" />
    <sodipodi:guide
       position="3.175,3.175"
       orientation="0.70710678,0.70710678"
       id="guide3791"
       inkscape:locked="false"
       inkscape:label=""
       inkscape:color="rgb(0,0,255)" />
  </sodipodi:namedview>
  <metadata
     id="metadata3711">
    <rdf:RDF>
      <cc:Work
         rdf:about="">
        <dc:format>image/svg+xml</dc:format>
        <dc:type
           rdf:resource="http://purl.org/dc/dcmitype/StillImage" />
        <dc:title></dc:title>
      </cc:Work>
    </rdf:RDF>
  </metadata>
  <g
     inkscape:label="Layer 1"
     inkscape:groupmode="layer"
     id="layer1"
     transform="translate(0,-290.64999)">
    <path
       style="fill:#000000;stroke-width:0.55553544"
       d="M 12,2 A 9.9999996,9.9999996 0 0 0 2,12 9.9999996,9.9999996 0 0 0 12,22 9.9999996,9.9999996 0 0 0 22,12 9.9999996,9.9999996 0 0 0 12,2 Z m 0.07031,3.8710938 c 0.915985,0 1.711644,0.1315043 2.390626,0.3925781 0.678981,0.2610738 1.243022,0.6425512 1.691406,1.1464843 0.454789,0.4978618 0.791979,1.1167008 1.009765,1.8574219 0.224192,0.7346499 0.335938,1.5799799 0.335938,2.5332029 0,0.953223 -0.118466,1.811165 -0.355469,2.576172 -0.237003,0.765007 -0.5924,1.418622 -1.066406,1.958985 -0.467601,0.53429 -1.056569,0.94685 -1.767578,1.238281 -0.711009,0.28536 -1.54027,0.427734 -2.488282,0.427734 -0.9352,0 -1.746253,-0.129551 -2.4316401,-0.390625 C 8.7096904,17.344183 8.1456496,16.957058 7.6972656,16.453125 7.2552871,15.949192 6.9248178,15.324918 6.7070312,14.578125 6.4892447,13.831332 6.3808594,12.971437 6.3808594,12 c 0,-0.928937 0.1184658,-1.772314 0.3554687,-2.53125 C 6.9733311,8.7098145 7.3287285,8.0672816 7.8027344,7.5390625 8.2767403,7.0047719 8.8690693,6.5939535 9.5800781,6.3085938 10.291087,6.0171625 11.122301,5.8710937 12.070312,5.8710938 Z m -0.09766,1.3398437 c -0.717414,0 -1.319823,0.125857 -1.80664,0.3808594 C 9.6791987,7.8467992 9.2820727,8.1882774 8.9746094,8.6132812 8.6735516,9.0382851 8.4567808,9.5347492 8.3222656,10.105469 c -0.1281097,0.564648 -0.1914062,1.159793 -0.1914062,1.785156 0,0.692149 0.059936,1.3312 0.1816406,1.914063 0.1217042,0.582862 0.3269875,1.086714 0.6152344,1.511718 0.2882468,0.418933 0.6719323,0.745634 1.1523436,0.982422 0.486817,0.230717 1.095947,0.345703 1.826172,0.345703 0.72382,0 1.33295,-0.125857 1.826172,-0.380859 0.493222,-0.255002 0.890348,-0.598222 1.191406,-1.029297 0.301058,-0.437147 0.514469,-0.940999 0.642578,-1.511719 0.12811,-0.570719 0.19336,-1.174994 0.19336,-1.8125 0,-0.667863 -0.06525,-1.288655 -0.19336,-1.859375 C 15.444702,9.4739902 15.236059,8.9775262 14.941406,8.5585938 14.653159,8.1335899 14.266114,7.801241 13.779297,7.5644531 13.29248,7.3276652 12.690071,7.2109375 11.972656,7.2109375 Z"
       transform="matrix(0.26458334,0,0,0.26458334,0,290.64999)"
       id="path3680"
       inkscape:connector-curvature="0" />
  </g>
</svg>
