<?xml version="1.0" encoding="UTF-8" standalone="no"?>
<!-- Created with Inkscape (http://www.inkscape.org/) -->

<svg
   xmlns:dc="http://purl.org/dc/elements/1.1/"
   xmlns:cc="http://creativecommons.org/ns#"
   xmlns:rdf="http://www.w3.org/1999/02/22-rdf-syntax-ns#"
   xmlns:svg="http://www.w3.org/2000/svg"
   xmlns="http://www.w3.org/2000/svg"
   xmlns:sodipodi="http://sodipodi.sourceforge.net/DTD/sodipodi-0.dtd"
   xmlns:inkscape="http://www.inkscape.org/namespaces/inkscape"
   width="24"
   height="24"
   viewBox="0 0 6.3499999 6.3500002"
   version="1.1"
   id="svg3714"
   sodipodi:docname="avatar-m.svg"
   inkscape:version="0.92.0 r15299">
  <defs
     id="defs3708" />
  <g
     inkscape:label="Layer 1"
     inkscape:groupmode="layer"
     id="layer1"
     transform="translate(0,-290.64999)">
    <path
       style="fill:#000000;stroke-width:0.55553544"
       d="M 12,2 A 9.9999996,9.9999996 0 0 0 2,12 9.9999996,9.9999996 0 0 0 12,22 9.9999996,9.9999996 0 0 0 22,12 9.9999996,9.9999996 0 0 0 12,2 Z M 7.3164062,6.0449219 h 0.7753907 c 0.1589471,0 0.2968052,0.018259 0.4160156,0.054687 0.1192104,0.036429 0.2250453,0.092946 0.3144531,0.171875 0.089408,0.078929 0.1630511,0.1793515 0.2226563,0.3007812 C 9.1045271,6.6936953 9.156468,6.8360699 9.2011719,7 l 2.7949221,8.535156 h 0.03711 L 14.9375,7.0273438 c 0.05464,-0.1821446 0.115115,-0.3353895 0.179688,-0.4628907 0.06457,-0.1275011 0.134477,-0.2279234 0.208984,-0.3007812 0.07947,-0.078929 0.165391,-0.1337051 0.259766,-0.1640625 0.09437,-0.036429 0.203947,-0.054687 0.328124,-0.054687 h 0.8125 c 0.07451,0 0.144413,0.014564 0.208985,0.044922 0.06954,0.024286 0.127171,0.066238 0.171875,0.1269531 0.04967,0.054643 0.08934,0.1276777 0.11914,0.21875 0.0298,0.085001 0.04297,0.1928113 0.04297,0.3203125 V 17.591797 c 0,0.04857 -0.0094,0.09248 -0.0293,0.128906 -0.01987,0.03643 -0.05384,0.06556 -0.103515,0.08984 -0.04967,0.01821 -0.113886,0.03473 -0.19336,0.04687 -0.07451,0.01821 -0.17465,0.02734 -0.298828,0.02734 -0.114243,0 -0.214387,-0.0091 -0.298828,-0.02734 -0.07947,-0.01214 -0.143688,-0.02866 -0.193359,-0.04687 -0.0447,-0.02429 -0.07583,-0.05342 -0.0957,-0.08984 -0.01987,-0.03643 -0.03125,-0.08033 -0.03125,-0.128906 V 7.328125 h -0.01367 l -3.435547,10.310547 c -0.0149,0.0425 -0.0366,0.07902 -0.06641,0.109375 -0.02484,0.03036 -0.0645,0.05775 -0.119141,0.08203 -0.04967,0.01822 -0.112994,0.02908 -0.1875,0.03516 -0.06954,0.01214 -0.152611,0.01953 -0.251953,0.01953 -0.104309,0 -0.195025,-0.0074 -0.269531,-0.01953 -0.07451,-0.01214 -0.135876,-0.02671 -0.185547,-0.04492 -0.04967,-0.02429 -0.08934,-0.05167 -0.119141,-0.08203 -0.02483,-0.03036 -0.0428,-0.06318 -0.05273,-0.09961 L 8.0390625,7.328125 H 8.03125 v 10.263672 c 0,0.04857 -0.00943,0.09248 -0.029297,0.128906 -0.019868,0.03643 -0.053845,0.06556 -0.1035156,0.08984 -0.049671,0.01821 -0.1158389,0.03473 -0.1953125,0.04687 -0.079474,0.01821 -0.18051,0.02734 -0.3046875,0.02734 -0.1192104,0 -0.2193545,-0.0091 -0.2988281,-0.02734 -0.079474,-0.01214 -0.1436884,-0.02866 -0.1933594,-0.04687 -0.044704,-0.02429 -0.075835,-0.05342 -0.095703,-0.08984 -0.014901,-0.03643 -0.023437,-0.08033 -0.023437,-0.128906 V 6.7558594 c 0,-0.2550024 0.054786,-0.4375883 0.1640625,-0.546875 C 7.0604481,6.0996977 7.1822946,6.0449219 7.3164062,6.0449219 Z"
       transform="matrix(0.26458334,0,0,0.26458334,0,290.64999)"
       id="path3680"
       inkscape:connector-curvature="0" />
  </g>
</svg>
