<?xml version="1.0" encoding="UTF-8" standalone="no"?>
<!-- Created with Inkscape (http://www.inkscape.org/) -->

<svg
   xmlns:dc="http://purl.org/dc/elements/1.1/"
   xmlns:cc="http://creativecommons.org/ns#"
   xmlns:rdf="http://www.w3.org/1999/02/22-rdf-syntax-ns#"
   xmlns:svg="http://www.w3.org/2000/svg"
   xmlns="http://www.w3.org/2000/svg"
   xmlns:sodipodi="http://sodipodi.sourceforge.net/DTD/sodipodi-0.dtd"
   xmlns:inkscape="http://www.inkscape.org/namespaces/inkscape"
   width="24"
   height="24"
   viewBox="0 0 6.3499999 6.3500002"
   version="1.1"
   id="svg3714"
   sodipodi:docname="avatar-r.svg"
   inkscape:version="0.92.0 r15299">
  <defs
     id="defs3708" />
  <sodipodi:namedview
     id="base"
     pagecolor="#ffffff"
     bordercolor="#666666"
     borderopacity="1.0"
     inkscape:pageopacity="0.0"
     inkscape:pageshadow="2"
     inkscape:zoom="16"
     inkscape:cx="18.412083"
     inkscape:cy="2.8647792"
     inkscape:document-units="px"
     inkscape:current-layer="layer1"
     showgrid="false"
     units="px"
     inkscape:window-width="943"
     inkscape:window-height="807"
     inkscape:window-x="589"
     inkscape:window-y="106"
     inkscape:window-maximized="0"
     showguides="true"
     inkscape:guide-bbox="true">
    <sodipodi:guide
       position="3.175,3.175"
       orientation="-0.70710678,0.70710678"
       id="guide3783"
       inkscape:locked="false"
       inkscape:label=""
       inkscape:color="rgb(0,0,255)" />
    <sodipodi:guide
       position="3.175,3.175"
       orientation="1,0"
       id="guide3787"
       inkscape:locked="false"
       inkscape:label=""
       inkscape:color="rgb(0,0,255)" />
    <sodipodi:guide
       position="3.175,3.175"
       orientation="0,1"
       id="guide3789"
       inkscape:locked="false"
       inkscape:label=""
       inkscape:color="rgb(0,0,255)" />
    <sodipodi:guide
       position="3.175,3.175"
       orientation="0.70710678,0.70710678"
       id="guide3791"
       inkscape:locked="false"
       inkscape:label=""
       inkscape:color="rgb(0,0,255)" />
  </sodipodi:namedview>
  <metadata
     id="metadata3711">
    <rdf:RDF>
      <cc:Work
         rdf:about="">
        <dc:format>image/svg+xml</dc:format>
        <dc:type
           rdf:resource="http://purl.org/dc/dcmitype/StillImage" />
        <dc:title></dc:title>
      </cc:Work>
    </rdf:RDF>
  </metadata>
  <g
     inkscape:label="Layer 1"
     inkscape:groupmode="layer"
     id="layer1"
     transform="translate(0,-290.64999)">
    <path
       style="fill:#000000;stroke-width:0.55553544"
       d="M 12,2 A 9.9999996,9.9999996 0 0 0 2,12 9.9999996,9.9999996 0 0 0 12,22 9.9999996,9.9999996 0 0 0 22,12 9.9999996,9.9999996 0 0 0 12,2 Z M 8.8691406,6.0449219 h 2.6425784 c 0.313869,0 0.574321,0.00913 0.779297,0.027344 0.211381,0.012143 0.399863,0.026707 0.566406,0.044922 0.480411,0.078929 0.902465,0.2030453 1.267578,0.3730469 0.371518,0.1700015 0.681827,0.3854105 0.931641,0.6464844 0.249814,0.2610738 0.436889,0.5623406 0.558593,0.9023437 0.12811,0.3339316 0.191407,0.7045387 0.191407,1.1113281 0,0.3946465 -0.05658,0.748736 -0.171875,1.0644534 -0.108894,0.309645 -0.269088,0.587219 -0.480469,0.830078 -0.211381,0.236788 -0.465113,0.443067 -0.759766,0.61914 -0.294652,0.176074 -0.625121,0.323883 -0.990234,0.445313 0.204975,0.085 0.392051,0.194552 0.558594,0.328125 0.166542,0.127501 0.320016,0.282699 0.460937,0.464844 0.147326,0.182144 0.284,0.392118 0.41211,0.628906 0.128109,0.236788 0.256655,0.503279 0.384765,0.800781 l 1.115235,2.595703 c 0.08968,0.218574 0.146253,0.373772 0.171874,0.464844 0.02562,0.085 0.03906,0.150647 0.03906,0.199219 0,0.04857 -0.01008,0.09248 -0.0293,0.128906 -0.01922,0.03643 -0.06095,0.06556 -0.125,0.08984 -0.06405,0.02429 -0.152279,0.04254 -0.267578,0.05469 -0.115299,0.01214 -0.270726,0.01953 -0.462891,0.01953 -0.166542,0 -0.303216,-0.0074 -0.412109,-0.01953 -0.102488,-0.01214 -0.185945,-0.0304 -0.25,-0.05469 -0.06405,-0.03036 -0.115864,-0.06862 -0.154297,-0.117188 -0.03203,-0.04857 -0.06032,-0.110736 -0.08594,-0.183593 l -1.142578,-2.777344 c -0.134516,-0.315717 -0.276502,-0.604161 -0.423829,-0.865234 -0.14092,-0.267146 -0.311195,-0.495378 -0.509765,-0.683594 -0.19857,-0.194288 -0.432142,-0.342098 -0.701172,-0.445313 -0.269031,-0.109286 -0.59278,-0.164062 -0.970703,-0.164062 H 9.9082031 v 5.017578 c 0,0.04857 -0.016801,0.09248 -0.048828,0.128906 -0.025622,0.03643 -0.070711,0.06556 -0.1347656,0.08984 -0.057649,0.01821 -0.1411068,0.03473 -0.25,0.04687 -0.1024878,0.01821 -0.232441,0.02734 -0.3925782,0.02734 -0.1601371,0 -0.2954036,-0.0091 -0.4042968,-0.02734 -0.1024878,-0.01214 -0.1859452,-0.02866 -0.25,-0.04687 -0.064055,-0.02429 -0.1091437,-0.05342 -0.1347656,-0.08984 -0.025622,-0.03643 -0.037109,-0.08033 -0.037109,-0.128906 V 6.6816406 c 0,-0.2367879 0.063296,-0.4011152 0.1914062,-0.4921875 0.1345152,-0.097144 0.2745489,-0.1445312 0.421875,-0.1445312 z m 1.0390625,1.2929687 v 3.9707034 h 1.6132809 c 0.435573,0 0.811132,-0.04934 1.125,-0.146485 0.320275,-0.103215 0.585494,-0.241895 0.796875,-0.417968 0.211381,-0.182145 0.364856,-0.395813 0.460938,-0.638672 0.102488,-0.2428596 0.154297,-0.5056561 0.154297,-0.7910159 0,-0.4614328 -0.108386,-0.8502984 -0.326172,-1.1660156 -0.217787,-0.3217887 -0.583264,-0.5517621 -1.095703,-0.6914063 -0.160137,-0.0425 -0.343853,-0.073582 -0.548828,-0.091797 -0.19857,-0.018215 -0.46043,-0.027344 -0.78711,-0.027344 z"
       transform="matrix(0.26458334,0,0,0.26458334,0,290.64999)"
       id="path3680"
       inkscape:connector-curvature="0" />
  </g>
</svg>
