<?xml version="1.0" encoding="UTF-8" standalone="no"?>
<!-- Created with Inkscape (http://www.inkscape.org/) -->

<svg
   xmlns:dc="http://purl.org/dc/elements/1.1/"
   xmlns:cc="http://creativecommons.org/ns#"
   xmlns:rdf="http://www.w3.org/1999/02/22-rdf-syntax-ns#"
   xmlns:svg="http://www.w3.org/2000/svg"
   xmlns="http://www.w3.org/2000/svg"
   xmlns:sodipodi="http://sodipodi.sourceforge.net/DTD/sodipodi-0.dtd"
   xmlns:inkscape="http://www.inkscape.org/namespaces/inkscape"
   width="24"
   height="24"
   viewBox="0 0 6.3499999 6.3500002"
   version="1.1"
   id="svg3714"
   sodipodi:docname="avatar-y.svg"
   inkscape:version="0.92.0 r15299">
  <defs
     id="defs3708" />
  <sodipodi:namedview
     id="base"
     pagecolor="#ffffff"
     bordercolor="#666666"
     borderopacity="1.0"
     inkscape:pageopacity="0.0"
     inkscape:pageshadow="2"
     inkscape:zoom="16"
     inkscape:cx="19.8316"
     inkscape:cy="4.3649707"
     inkscape:document-units="px"
     inkscape:current-layer="layer1"
     showgrid="false"
     units="px"
     inkscape:window-width="943"
     inkscape:window-height="807"
     inkscape:window-x="589"
     inkscape:window-y="106"
     inkscape:window-maximized="0"
     showguides="true"
     inkscape:guide-bbox="true">
    <sodipodi:guide
       position="3.175,3.175"
       orientation="-0.70710678,0.70710678"
       id="guide3783"
       inkscape:locked="false"
       inkscape:label=""
       inkscape:color="rgb(0,0,255)" />
    <sodipodi:guide
       position="3.175,3.175"
       orientation="1,0"
       id="guide3787"
       inkscape:locked="false"
       inkscape:label=""
       inkscape:color="rgb(0,0,255)" />
    <sodipodi:guide
       position="3.175,3.175"
       orientation="0,1"
       id="guide3789"
       inkscape:locked="false"
       inkscape:label=""
       inkscape:color="rgb(0,0,255)" />
    <sodipodi:guide
       position="3.175,3.175"
       orientation="0.70710678,0.70710678"
       id="guide3791"
       inkscape:locked="false"
       inkscape:label=""
       inkscape:color="rgb(0,0,255)" />
  </sodipodi:namedview>
  <metadata
     id="metadata3711">
    <rdf:RDF>
      <cc:Work
         rdf:about="">
        <dc:format>image/svg+xml</dc:format>
        <dc:type
           rdf:resource="http://purl.org/dc/dcmitype/StillImage" />
        <dc:title></dc:title>
      </cc:Work>
    </rdf:RDF>
  </metadata>
  <g
     inkscape:label="Layer 1"
     inkscape:groupmode="layer"
     id="layer1"
     transform="translate(0,-290.64999)">
    <path
       style="fill:#000000;stroke-width:0.55553544"
       d="M 12,2 A 9.9999996,9.9999996 0 0 0 2,12 9.9999996,9.9999996 0 0 0 12,22 9.9999996,9.9999996 0 0 0 22,12 9.9999996,9.9999996 0 0 0 12,2 Z M 8.3261719,5.9902344 c 0.1921645,0 0.3475919,0.00544 0.4628906,0.017578 0.1217042,0.012143 0.216649,0.030402 0.2871094,0.054687 0.07046,0.018215 0.1222694,0.049296 0.1542969,0.091797 0.038433,0.036429 0.073441,0.083816 0.1054687,0.1445312 L 11.056641,9.6875 c 0.160137,0.321789 0.320331,0.659573 0.480468,1.011719 0.160138,0.352146 0.321739,0.706235 0.488282,1.064453 h 0.01953 c 0.147326,-0.346075 0.29744,-0.689294 0.451172,-1.029297 0.160137,-0.346075 0.320331,-0.6856 0.480468,-1.0195312 l 1.730469,-3.40625 c 0.01922,-0.060715 0.04414,-0.1117965 0.07617,-0.1542969 0.03843,-0.0425 0.08688,-0.073582 0.144531,-0.091797 0.06406,-0.024286 0.150873,-0.042544 0.259766,-0.054687 0.108893,-0.012143 0.245567,-0.017578 0.412109,-0.017578 0.230598,0 0.410953,0.00913 0.539063,0.027344 0.134515,0.012143 0.228053,0.039531 0.279297,0.082031 0.05124,0.0425 0.06609,0.1027113 0.04687,0.1816406 -0.01281,0.078929 -0.05454,0.1847867 -0.125,0.3183594 l -3.515625,6.6484376 v 4.34375 c 0,0.04857 -0.01344,0.09248 -0.03906,0.128906 -0.02562,0.03643 -0.07071,0.06556 -0.134765,0.08984 -0.06406,0.01821 -0.150873,0.03473 -0.259766,0.04687 -0.108893,0.01821 -0.238846,0.02734 -0.392578,0.02734 -0.160137,0 -0.295404,-0.0091 -0.404297,-0.02734 -0.102488,-0.01214 -0.189305,-0.02866 -0.259766,-0.04687 -0.06405,-0.02429 -0.109143,-0.05342 -0.134765,-0.08984 -0.02562,-0.03643 -0.03711,-0.08033 -0.03711,-0.128906 v -4.34375 L 7.6445312,6.5996094 C 7.5740709,6.4599652 7.5289821,6.3504137 7.5097656,6.2714844 c -0.012811,-0.078929 0.00399,-0.1391403 0.048828,-0.1816406 0.051244,-0.0425 0.1380614,-0.069888 0.2597656,-0.082031 0.1281097,-0.012143 0.2964315,-0.017578 0.5078125,-0.017578 z"
       transform="matrix(0.26458334,0,0,0.26458334,0,290.64999)"
       id="path3680"
       inkscape:connector-curvature="0" />
  </g>
</svg>
