<?xml version="1.0" encoding="UTF-8" standalone="no"?>
<!-- Created with Inkscape (http://www.inkscape.org/) -->

<svg
   xmlns:dc="http://purl.org/dc/elements/1.1/"
   xmlns:cc="http://creativecommons.org/ns#"
   xmlns:rdf="http://www.w3.org/1999/02/22-rdf-syntax-ns#"
   xmlns:svg="http://www.w3.org/2000/svg"
   xmlns="http://www.w3.org/2000/svg"
   xmlns:sodipodi="http://sodipodi.sourceforge.net/DTD/sodipodi-0.dtd"
   xmlns:inkscape="http://www.inkscape.org/namespaces/inkscape"
   width="24"
   height="24"
   viewBox="0 0 6.3499999 6.3500002"
   version="1.1"
   id="svg3714"
   sodipodi:docname="avatar-C.svg"
   inkscape:version="0.92.0 r15299">
  <defs
     id="defs3708" />
  <sodipodi:namedview
     id="base"
     pagecolor="#ffffff"
     bordercolor="#666666"
     borderopacity="1.0"
     inkscape:pageopacity="0.0"
     inkscape:pageshadow="2"
     inkscape:zoom="11.2"
     inkscape:cx="16.53859"
     inkscape:cy="7.9096057"
     inkscape:document-units="px"
     inkscape:current-layer="layer1"
     showgrid="false"
     units="px"
     inkscape:window-width="943"
     inkscape:window-height="405"
     inkscape:window-x="589"
     inkscape:window-y="508"
     inkscape:window-maximized="0"
     showguides="true"
     inkscape:guide-bbox="true">
    <sodipodi:guide
       position="3.175,3.175"
       orientation="-0.70710678,0.70710678"
       id="guide3783"
       inkscape:locked="false"
       inkscape:label=""
       inkscape:color="rgb(0,0,255)" />
    <sodipodi:guide
       position="3.175,3.175"
       orientation="1,0"
       id="guide3787"
       inkscape:locked="false"
       inkscape:label=""
       inkscape:color="rgb(0,0,255)" />
    <sodipodi:guide
       position="3.175,3.175"
       orientation="0,1"
       id="guide3789"
       inkscape:locked="false"
       inkscape:label=""
       inkscape:color="rgb(0,0,255)" />
    <sodipodi:guide
       position="3.175,3.175"
       orientation="0.70710678,0.70710678"
       id="guide3791"
       inkscape:locked="false"
       inkscape:label=""
       inkscape:color="rgb(0,0,255)" />
  </sodipodi:namedview>
  <metadata
     id="metadata3711">
    <rdf:RDF>
      <cc:Work
         rdf:about="">
        <dc:format>image/svg+xml</dc:format>
        <dc:type
           rdf:resource="http://purl.org/dc/dcmitype/StillImage" />
        <dc:title></dc:title>
      </cc:Work>
    </rdf:RDF>
  </metadata>
  <g
     inkscape:label="Layer 1"
     inkscape:groupmode="layer"
     id="layer1"
     transform="translate(0,-290.64999)">
    <path
       style="fill:#000000;stroke-width:0.55553544"
       d="M 12,2 A 9.9999996,9.9999996 0 0 0 2,12 9.9999996,9.9999996 0 0 0 12,22 9.9999996,9.9999996 0 0 0 22,12 9.9999996,9.9999996 0 0 0 12,2 Z m 0.205078,3.8984375 c 0.358707,0 0.707384,0.032823 1.046875,0.099609 0.339491,0.060715 0.65316,0.1411375 0.941406,0.2382812 0.288247,0.097144 0.54534,0.2084364 0.769532,0.3359375 0.224192,0.1275012 0.377666,0.2333586 0.460937,0.3183594 0.08968,0.078929 0.146253,0.1410934 0.171875,0.1835938 0.02562,0.0425 0.04578,0.093582 0.05859,0.1542968 0.01922,0.054643 0.0307,0.1222426 0.03711,0.2011719 0.01281,0.078929 0.01953,0.1719633 0.01953,0.28125 0,0.1214297 -0.0067,0.2255461 -0.01953,0.3105469 -0.01281,0.085001 -0.03102,0.1580351 -0.05664,0.21875 -0.02562,0.054643 -0.05727,0.096596 -0.0957,0.1269531 -0.03203,0.024286 -0.07376,0.035156 -0.125,0.035156 -0.08968,0 -0.214862,-0.056517 -0.375,-0.171875 -0.160137,-0.1214297 -0.36878,-0.252934 -0.625,-0.3925782 C 14.164249,7.692175 13.8573,7.5626238 13.492188,7.4472656 13.13348,7.3258359 12.701346,7.265625 12.195312,7.265625 c -0.550871,0 -1.054976,0.1058574 -1.509765,0.3183594 C 10.237163,7.7904148 9.8534774,8.0971168 9.5332031,8.5039062 9.2129289,8.9106957 8.9625567,9.4071598 8.7832031,9.9960938 8.610255,10.578956 8.5253906,11.247136 8.5253906,12 c 0,0.746793 0.083457,1.409537 0.25,1.986328 0.1729481,0.57072 0.4146469,1.050878 0.7285156,1.439453 0.3202743,0.382504 0.7126328,0.672688 1.1738278,0.873047 0.461195,0.194288 0.981554,0.291016 1.564454,0.291016 0.493222,0 0.923949,-0.05652 1.289062,-0.171875 0.371518,-0.115358 0.685187,-0.243169 0.941406,-0.382813 0.262625,-0.145715 0.476036,-0.27722 0.642578,-0.392578 0.166543,-0.115358 0.298449,-0.171875 0.394532,-0.171875 0.04484,0 0.08321,0.0091 0.115234,0.02734 0.03203,0.01821 0.05696,0.05473 0.07617,0.109375 0.01922,0.04857 0.03266,0.117912 0.03906,0.208984 0.01281,0.09107 0.01953,0.206059 0.01953,0.345703 0,0.09714 -0.0034,0.183002 -0.0098,0.25586 -0.0064,0.07286 -0.01985,0.136763 -0.03906,0.191406 -0.01281,0.05464 -0.03102,0.102031 -0.05664,0.144531 -0.02562,0.0425 -0.07071,0.09553 -0.134766,0.15625 -0.06405,0.06071 -0.199321,0.153749 -0.404297,0.28125 -0.204975,0.12143 -0.460114,0.243805 -0.767578,0.365235 -0.301058,0.115358 -0.649735,0.212086 -1.046875,0.291015 -0.390734,0.085 -0.821462,0.126953 -1.289062,0.126953 -0.807091,0 -1.536094,-0.12781 -2.1894534,-0.382812 C 9.1753116,17.336795 8.6213512,16.960752 8.1601562,16.462891 7.7053668,15.965029 7.3533296,15.351625 7.1035156,14.623047 6.8601072,13.888397 6.7382813,13.04502 6.7382812,12.091797 c 0,-0.977509 0.1299533,-1.848274 0.3925782,-2.6132814 0.2690304,-0.765007 0.6445886,-1.411234 1.125,-1.9394531 C 8.7362708,7.0047719 9.3084389,6.5976477 9.9746094,6.3183594 10.647185,6.0390711 11.391581,5.8984375 12.205078,5.8984375 Z"
       transform="matrix(0.26458334,0,0,0.26458334,0,290.64999)"
       id="path3680"
       inkscape:connector-curvature="0" />
  </g>
</svg>
