<?xml version="1.0" encoding="UTF-8" standalone="no"?>
<!-- Created with Inkscape (http://www.inkscape.org/) -->

<svg
   xmlns:dc="http://purl.org/dc/elements/1.1/"
   xmlns:cc="http://creativecommons.org/ns#"
   xmlns:rdf="http://www.w3.org/1999/02/22-rdf-syntax-ns#"
   xmlns:svg="http://www.w3.org/2000/svg"
   xmlns="http://www.w3.org/2000/svg"
   xmlns:sodipodi="http://sodipodi.sourceforge.net/DTD/sodipodi-0.dtd"
   xmlns:inkscape="http://www.inkscape.org/namespaces/inkscape"
   width="24"
   height="24"
   viewBox="0 0 6.3499999 6.3500002"
   version="1.1"
   id="svg3714"
   sodipodi:docname="avatar-w.svg"
   inkscape:version="0.92.0 r15299">
  <defs
     id="defs3708" />
  <sodipodi:namedview
     id="base"
     pagecolor="#ffffff"
     bordercolor="#666666"
     borderopacity="1.0"
     inkscape:pageopacity="0.0"
     inkscape:pageshadow="2"
     inkscape:zoom="16"
     inkscape:cx="18.412083"
     inkscape:cy="2.8647792"
     inkscape:document-units="px"
     inkscape:current-layer="layer1"
     showgrid="false"
     units="px"
     inkscape:window-width="943"
     inkscape:window-height="807"
     inkscape:window-x="589"
     inkscape:window-y="106"
     inkscape:window-maximized="0"
     showguides="true"
     inkscape:guide-bbox="true">
    <sodipodi:guide
       position="3.175,3.175"
       orientation="-0.70710678,0.70710678"
       id="guide3783"
       inkscape:locked="false"
       inkscape:label=""
       inkscape:color="rgb(0,0,255)" />
    <sodipodi:guide
       position="3.175,3.175"
       orientation="1,0"
       id="guide3787"
       inkscape:locked="false"
       inkscape:label=""
       inkscape:color="rgb(0,0,255)" />
    <sodipodi:guide
       position="3.175,3.175"
       orientation="0,1"
       id="guide3789"
       inkscape:locked="false"
       inkscape:label=""
       inkscape:color="rgb(0,0,255)" />
    <sodipodi:guide
       position="3.175,3.175"
       orientation="0.70710678,0.70710678"
       id="guide3791"
       inkscape:locked="false"
       inkscape:label=""
       inkscape:color="rgb(0,0,255)" />
  </sodipodi:namedview>
  <metadata
     id="metadata3711">
    <rdf:RDF>
      <cc:Work
         rdf:about="">
        <dc:format>image/svg+xml</dc:format>
        <dc:type
           rdf:resource="http://purl.org/dc/dcmitype/StillImage" />
        <dc:title></dc:title>
      </cc:Work>
    </rdf:RDF>
  </metadata>
  <g
     inkscape:label="Layer 1"
     inkscape:groupmode="layer"
     id="layer1"
     transform="translate(0,-290.64999)">
    <path
       style="fill:#000000;stroke-width:0.55553544"
       d="M 12,2 A 9.9999996,9.9999996 0 0 0 2,12 9.9999996,9.9999996 0 0 0 12,22 9.9999996,9.9999996 0 0 0 22,12 9.9999996,9.9999996 0 0 0 12,2 Z M 6.4609375,5.9902344 c 0.1498885,0 0.2684367,0.00544 0.3554687,0.017578 0.087032,0.00607 0.1517965,0.020636 0.1953126,0.044922 0.048351,0.024286 0.081198,0.059062 0.095703,0.1015625 0.01934,0.0425 0.033298,0.097276 0.042969,0.1640625 l 2.1113282,9.8710936 h 0.00586 L 11.269531,6.3359375 c 0.01451,-0.066786 0.03144,-0.1215621 0.05078,-0.1640625 0.02418,-0.048572 0.06102,-0.085089 0.109376,-0.109375 0.04835,-0.024286 0.116092,-0.042544 0.203124,-0.054687 0.09187,-0.012143 0.210416,-0.017578 0.355469,-0.017578 0.135383,0 0.240998,0.00544 0.31836,0.017578 0.0822,0.012143 0.146961,0.030402 0.195312,0.054687 0.04835,0.024286 0.08222,0.060803 0.101563,0.109375 0.02417,0.0425 0.04409,0.097276 0.05859,0.1640625 l 2.154297,9.8535155 h 0.01367 l 2.06836,-9.8632811 c 0.0145,-0.060715 0.02846,-0.1117965 0.04297,-0.1542969 0.01451,-0.048572 0.04437,-0.085089 0.08789,-0.109375 0.04835,-0.024286 0.113115,-0.042544 0.195312,-0.054687 0.08703,-0.012143 0.199626,-0.017578 0.339844,-0.017578 0.145054,0 0.2596,0.00913 0.341797,0.027344 0.08703,0.012143 0.148819,0.039531 0.1875,0.082031 0.03868,0.0425 0.05562,0.1027113 0.05078,0.1816406 0,0.078929 -0.01098,0.1884809 -0.03516,0.328125 l -2.488281,10.873047 c -0.01934,0.085 -0.04726,0.156294 -0.08594,0.210937 -0.03868,0.04857 -0.09246,0.08683 -0.160156,0.117188 -0.06769,0.02429 -0.152369,0.04254 -0.253906,0.05469 -0.0967,0.01214 -0.218228,0.01953 -0.363282,0.01953 -0.149888,0 -0.278393,-0.0074 -0.384765,-0.01953 -0.101537,-0.01214 -0.184262,-0.0304 -0.251953,-0.05469 -0.06769,-0.03036 -0.118498,-0.06862 -0.152344,-0.117188 -0.03385,-0.05464 -0.06074,-0.125936 -0.08008,-0.210937 L 11.921875,8.5859375 h -0.01367 l -1.8125,8.8964845 c -0.0145,0.085 -0.04037,0.156294 -0.07422,0.210937 -0.033845,0.04857 -0.081674,0.08683 -0.1445309,0.117188 -0.062856,0.02429 -0.1445564,0.04254 -0.2460937,0.05469 -0.096702,0.01214 -0.2222295,0.01953 -0.3769532,0.01953 -0.1595587,0 -0.292065,-0.0074 -0.3984374,-0.01953 -0.1063725,-0.01214 -0.1940272,-0.0304 -0.2617188,-0.05469 -0.067692,-0.03036 -0.1214753,-0.06862 -0.1601562,-0.117188 -0.033846,-0.05464 -0.05776,-0.125936 -0.072266,-0.210937 L 5.8808594,6.5996094 c -0.029011,-0.1396442 -0.045946,-0.2491957 -0.050781,-0.328125 0,-0.078929 0.019913,-0.1391403 0.058594,-0.1816406 0.043516,-0.0425 0.1112578,-0.069888 0.203125,-0.082031 0.091867,-0.012143 0.214417,-0.017578 0.3691406,-0.017578 z"
       transform="matrix(0.26458334,0,0,0.26458334,0,290.64999)"
       id="path3680"
       inkscape:connector-curvature="0" />
  </g>
</svg>
