<?xml version="1.0" encoding="UTF-8" standalone="no"?>
<!-- Created with Inkscape (http://www.inkscape.org/) -->

<svg
   xmlns:dc="http://purl.org/dc/elements/1.1/"
   xmlns:cc="http://creativecommons.org/ns#"
   xmlns:rdf="http://www.w3.org/1999/02/22-rdf-syntax-ns#"
   xmlns:svg="http://www.w3.org/2000/svg"
   xmlns="http://www.w3.org/2000/svg"
   xmlns:sodipodi="http://sodipodi.sourceforge.net/DTD/sodipodi-0.dtd"
   xmlns:inkscape="http://www.inkscape.org/namespaces/inkscape"
   width="24"
   height="24"
   viewBox="0 0 6.3499999 6.3500002"
   version="1.1"
   id="svg3714"
   sodipodi:docname="avatar-x.svg"
   inkscape:version="0.92.0 r15299">
  <defs
     id="defs3708" />
  <sodipodi:namedview
     id="base"
     pagecolor="#ffffff"
     bordercolor="#666666"
     borderopacity="1.0"
     inkscape:pageopacity="0.0"
     inkscape:pageshadow="2"
     inkscape:zoom="16"
     inkscape:cx="19.8316"
     inkscape:cy="4.3649707"
     inkscape:document-units="px"
     inkscape:current-layer="layer1"
     showgrid="false"
     units="px"
     inkscape:window-width="943"
     inkscape:window-height="807"
     inkscape:window-x="589"
     inkscape:window-y="106"
     inkscape:window-maximized="0"
     showguides="true"
     inkscape:guide-bbox="true">
    <sodipodi:guide
       position="3.175,3.175"
       orientation="-0.70710678,0.70710678"
       id="guide3783"
       inkscape:locked="false"
       inkscape:label=""
       inkscape:color="rgb(0,0,255)" />
    <sodipodi:guide
       position="3.175,3.175"
       orientation="1,0"
       id="guide3787"
       inkscape:locked="false"
       inkscape:label=""
       inkscape:color="rgb(0,0,255)" />
    <sodipodi:guide
       position="3.175,3.175"
       orientation="0,1"
       id="guide3789"
       inkscape:locked="false"
       inkscape:label=""
       inkscape:color="rgb(0,0,255)" />
    <sodipodi:guide
       position="3.175,3.175"
       orientation="0.70710678,0.70710678"
       id="guide3791"
       inkscape:locked="false"
       inkscape:label=""
       inkscape:color="rgb(0,0,255)" />
  </sodipodi:namedview>
  <metadata
     id="metadata3711">
    <rdf:RDF>
      <cc:Work
         rdf:about="">
        <dc:format>image/svg+xml</dc:format>
        <dc:type
           rdf:resource="http://purl.org/dc/dcmitype/StillImage" />
        <dc:title></dc:title>
      </cc:Work>
    </rdf:RDF>
  </metadata>
  <g
     inkscape:label="Layer 1"
     inkscape:groupmode="layer"
     id="layer1"
     transform="translate(0,-290.64999)">
    <path
       style="fill:#000000;stroke-width:0.55553544"
       d="M 12,2 A 9.9999996,9.9999996 0 0 0 2,12 9.9999996,9.9999996 0 0 0 12,22 9.9999996,9.9999996 0 0 0 22,12 9.9999996,9.9999996 0 0 0 12,2 Z M 8.375,5.9902344 c 0.1921646,0 0.3489989,0.00544 0.4707031,0.017578 0.1217042,0.00607 0.2186022,0.020636 0.2890625,0.044922 0.07046,0.018214 0.1203163,0.049296 0.1523438,0.091797 0.032027,0.036429 0.067036,0.078381 0.1054687,0.1269532 l 2.6718749,4.4082036 2.652344,-4.4082036 c 0.03203,-0.048572 0.06368,-0.090524 0.0957,-0.1269532 0.03203,-0.0425 0.07712,-0.073582 0.134766,-0.091797 0.06405,-0.024286 0.150872,-0.03885 0.259765,-0.044922 0.108894,-0.012143 0.255647,-0.017578 0.441407,-0.017578 0.19857,0 0.358764,0.00913 0.480468,0.027344 0.12811,0.012143 0.218288,0.039531 0.269532,0.082031 0.05765,0.0425 0.07922,0.1064054 0.06641,0.1914062 -0.01281,0.078929 -0.0579,0.1847867 -0.134766,0.3183594 l -3.228516,5.199219 3.363282,5.455078 c 0.08327,0.133573 0.13172,0.241383 0.144531,0.320312 0.01922,0.07893 -9.44e-4,0.142835 -0.05859,0.191407 -0.05765,0.0425 -0.152594,0.06989 -0.287109,0.08203 -0.12811,0.01821 -0.301745,0.02734 -0.519531,0.02734 -0.204976,0 -0.36517,-0.0074 -0.480469,-0.01953 -0.115299,-0.0061 -0.206884,-0.02064 -0.277344,-0.04492 -0.06405,-0.02429 -0.115864,-0.05167 -0.154297,-0.08203 -0.03203,-0.03643 -0.06032,-0.08207 -0.08594,-0.136719 l -2.767578,-4.689453 -2.7968754,4.689453 c -0.032027,0.05464 -0.067036,0.10029 -0.1054687,0.136719 -0.038433,0.03643 -0.091649,0.06751 -0.1621094,0.0918 -0.064055,0.01822 -0.1542325,0.02908 -0.2695313,0.03516 -0.1152987,0.01214 -0.2687729,0.01953 -0.4609374,0.01953 -0.2113811,0 -0.3782958,-0.0091 -0.5,-0.02734 C 7.5618895,17.845279 7.475072,17.817891 7.4238281,17.775391 7.3789897,17.726819 7.362189,17.662914 7.375,17.583984 c 0.019216,-0.07893 0.071026,-0.186739 0.1542969,-0.320312 L 10.921875,11.845703 7.6835938,6.609375 C 7.6067279,6.4758023 7.5549188,6.3699449 7.5292969,6.2910156 7.5100804,6.2060148 7.5268811,6.1421098 7.578125,6.0996094 7.6293689,6.0510375 7.7175934,6.0199555 7.8457031,6.0078125 7.9738128,5.9956695 8.150808,5.9902344 8.375,5.9902344 Z"
       transform="matrix(0.26458334,0,0,0.26458334,0,290.64999)"
       id="path3680"
       inkscape:connector-curvature="0" />
  </g>
</svg>
