<?xml version="1.0" encoding="UTF-8" standalone="no"?>
<!-- Created with Inkscape (http://www.inkscape.org/) -->

<svg
   xmlns:dc="http://purl.org/dc/elements/1.1/"
   xmlns:cc="http://creativecommons.org/ns#"
   xmlns:rdf="http://www.w3.org/1999/02/22-rdf-syntax-ns#"
   xmlns:svg="http://www.w3.org/2000/svg"
   xmlns="http://www.w3.org/2000/svg"
   xmlns:sodipodi="http://sodipodi.sourceforge.net/DTD/sodipodi-0.dtd"
   xmlns:inkscape="http://www.inkscape.org/namespaces/inkscape"
   width="24"
   height="24"
   viewBox="0 0 6.3499999 6.3500002"
   version="1.1"
   id="svg3714"
   sodipodi:docname="avatar-k.svg"
   inkscape:version="0.92.0 r15299">
  <defs
     id="defs3708" />
  <sodipodi:namedview
     id="base"
     pagecolor="#ffffff"
     bordercolor="#666666"
     borderopacity="1.0"
     inkscape:pageopacity="0.0"
     inkscape:pageshadow="2"
     inkscape:zoom="11.2"
     inkscape:cx="16.53859"
     inkscape:cy="7.9096057"
     inkscape:document-units="px"
     inkscape:current-layer="layer1"
     showgrid="false"
     units="px"
     inkscape:window-width="943"
     inkscape:window-height="807"
     inkscape:window-x="589"
     inkscape:window-y="106"
     inkscape:window-maximized="0"
     showguides="true"
     inkscape:guide-bbox="true">
    <sodipodi:guide
       position="3.175,3.175"
       orientation="-0.70710678,0.70710678"
       id="guide3783"
       inkscape:locked="false"
       inkscape:label=""
       inkscape:color="rgb(0,0,255)" />
    <sodipodi:guide
       position="3.175,3.175"
       orientation="1,0"
       id="guide3787"
       inkscape:locked="false"
       inkscape:label=""
       inkscape:color="rgb(0,0,255)" />
    <sodipodi:guide
       position="3.175,3.175"
       orientation="0,1"
       id="guide3789"
       inkscape:locked="false"
       inkscape:label=""
       inkscape:color="rgb(0,0,255)" />
    <sodipodi:guide
       position="3.175,3.175"
       orientation="0.70710678,0.70710678"
       id="guide3791"
       inkscape:locked="false"
       inkscape:label=""
       inkscape:color="rgb(0,0,255)" />
  </sodipodi:namedview>
  <metadata
     id="metadata3711">
    <rdf:RDF>
      <cc:Work
         rdf:about="">
        <dc:format>image/svg+xml</dc:format>
        <dc:type
           rdf:resource="http://purl.org/dc/dcmitype/StillImage" />
        <dc:title></dc:title>
      </cc:Work>
    </rdf:RDF>
  </metadata>
  <g
     inkscape:label="Layer 1"
     inkscape:groupmode="layer"
     id="layer1"
     transform="translate(0,-290.64999)">
    <path
       style="fill:#000000;stroke-width:0.55553544"
       d="M 12,2 A 9.9999996,9.9999996 0 0 0 2,12 9.9999996,9.9999996 0 0 0 12,22 9.9999996,9.9999996 0 0 0 22,12 9.9999996,9.9999996 0 0 0 12,2 Z M 9.2226562,5.9902344 c 0.1601372,0 0.2920435,0.00913 0.3945313,0.027344 0.1088933,0.012143 0.1937576,0.030402 0.2578125,0.054687 0.064055,0.018215 0.1091437,0.045602 0.134766,0.082031 0.02562,0.036429 0.03906,0.078381 0.03906,0.1269531 v 5.236328 L 14.449219,6.28125 c 0.03843,-0.054643 0.08352,-0.1002898 0.134765,-0.1367188 0.05124,-0.036429 0.111181,-0.063817 0.181641,-0.082031 0.07687,-0.024286 0.167043,-0.042544 0.269531,-0.054687 0.108894,-0.012143 0.24752,-0.017578 0.414063,-0.017578 0.166542,0 0.299856,0.00913 0.402343,0.027344 0.102488,0.012143 0.182586,0.030402 0.240235,0.054687 0.06405,0.024286 0.105783,0.053415 0.125,0.089844 0.02562,0.036429 0.03906,0.07664 0.03906,0.1191406 0,0.078929 -0.02157,0.1573988 -0.06641,0.2363281 -0.03843,0.078929 -0.117123,0.1884809 -0.232422,0.328125 l -4.121093,4.6718749 4.439453,5.591797 c 0.108893,0.157859 0.172189,0.26741 0.191406,0.328125 0.02562,0.05464 0.03906,0.10029 0.03906,0.136719 0,0.04857 -0.01344,0.09422 -0.03906,0.136719 -0.01922,0.03643 -0.06095,0.06751 -0.125,0.0918 -0.06405,0.02429 -0.150872,0.04255 -0.259766,0.05469 -0.108893,0.01821 -0.248927,0.02734 -0.421875,0.02734 -0.224192,0 -0.405954,-0.0091 -0.546875,-0.02734 -0.14092,-0.01822 -0.247899,-0.05299 -0.318359,-0.101563 -0.07046,-0.04857 -0.127037,-0.103347 -0.171875,-0.164062 l -4.574219,-5.892578 v 5.892578 c 0,0.0425 -0.01344,0.08641 -0.03906,0.128906 -0.025622,0.03643 -0.070711,0.06556 -0.134766,0.08984 -0.064055,0.01821 -0.1489192,0.03473 -0.2578125,0.04687 -0.1024878,0.01821 -0.2343941,0.02734 -0.3945313,0.02734 -0.1537316,0 -0.2856379,-0.0091 -0.3945312,-0.02734 -0.1088933,-0.01214 -0.1957108,-0.02866 -0.2597656,-0.04687 -0.064055,-0.02429 -0.1071906,-0.05342 -0.1328125,-0.08984 -0.025622,-0.0425 -0.039063,-0.08641 -0.039063,-0.128906 V 6.28125 c 0,-0.048572 0.01344,-0.090524 0.039063,-0.1269531 0.025622,-0.036429 0.068758,-0.063817 0.1328125,-0.082031 0.064055,-0.024286 0.1508723,-0.042544 0.2597656,-0.054687 0.1088933,-0.018214 0.2407996,-0.027344 0.3945312,-0.027344 z"
       transform="matrix(0.26458334,0,0,0.26458334,0,290.64999)"
       id="path3680"
       inkscape:connector-curvature="0" />
  </g>
</svg>
