<?xml version="1.0" encoding="UTF-8" standalone="no"?>
<!-- Created with Inkscape (http://www.inkscape.org/) -->

<svg
   xmlns:dc="http://purl.org/dc/elements/1.1/"
   xmlns:cc="http://creativecommons.org/ns#"
   xmlns:rdf="http://www.w3.org/1999/02/22-rdf-syntax-ns#"
   xmlns:svg="http://www.w3.org/2000/svg"
   xmlns="http://www.w3.org/2000/svg"
   xmlns:sodipodi="http://sodipodi.sourceforge.net/DTD/sodipodi-0.dtd"
   xmlns:inkscape="http://www.inkscape.org/namespaces/inkscape"
   width="24"
   height="24"
   viewBox="0 0 6.3499999 6.3500002"
   version="1.1"
   id="svg3714"
   sodipodi:docname="avatar-l.svg"
   inkscape:version="0.92.0 r15299">
  <defs
     id="defs3708" />
  <sodipodi:namedview
     id="base"
     pagecolor="#ffffff"
     bordercolor="#666666"
     borderopacity="1.0"
     inkscape:pageopacity="0.0"
     inkscape:pageshadow="2"
     inkscape:zoom="11.2"
     inkscape:cx="16.53859"
     inkscape:cy="7.9096057"
     inkscape:document-units="px"
     inkscape:current-layer="layer1"
     showgrid="false"
     units="px"
     inkscape:window-width="943"
     inkscape:window-height="807"
     inkscape:window-x="589"
     inkscape:window-y="106"
     inkscape:window-maximized="0"
     showguides="true"
     inkscape:guide-bbox="true">
    <sodipodi:guide
       position="3.175,3.175"
       orientation="-0.70710678,0.70710678"
       id="guide3783"
       inkscape:locked="false"
       inkscape:label=""
       inkscape:color="rgb(0,0,255)" />
    <sodipodi:guide
       position="3.175,3.175"
       orientation="1,0"
       id="guide3787"
       inkscape:locked="false"
       inkscape:label=""
       inkscape:color="rgb(0,0,255)" />
    <sodipodi:guide
       position="3.175,3.175"
       orientation="0,1"
       id="guide3789"
       inkscape:locked="false"
       inkscape:label=""
       inkscape:color="rgb(0,0,255)" />
    <sodipodi:guide
       position="3.175,3.175"
       orientation="0.70710678,0.70710678"
       id="guide3791"
       inkscape:locked="false"
       inkscape:label=""
       inkscape:color="rgb(0,0,255)" />
  </sodipodi:namedview>
  <metadata
     id="metadata3711">
    <rdf:RDF>
      <cc:Work
         rdf:about="">
        <dc:format>image/svg+xml</dc:format>
        <dc:type
           rdf:resource="http://purl.org/dc/dcmitype/StillImage" />
        <dc:title></dc:title>
      </cc:Work>
    </rdf:RDF>
  </metadata>
  <g
     inkscape:label="Layer 1"
     inkscape:groupmode="layer"
     id="layer1"
     transform="translate(0,-290.64999)">
    <path
       style="fill:#000000;stroke-width:0.55553544"
       d="M 12,2 A 9.9999996,9.9999996 0 0 0 2,12 9.9999996,9.9999996 0 0 0 12,22 9.9999996,9.9999996 0 0 0 22,12 9.9999996,9.9999996 0 0 0 12,2 Z M 9.6660156,5.9902344 c 0.1601372,0 0.2920435,0.00913 0.3945314,0.027344 0.108893,0.012143 0.195711,0.030402 0.259765,0.054687 0.06405,0.018215 0.109144,0.045602 0.134766,0.082031 0.02562,0.036429 0.03711,0.078381 0.03711,0.1269531 v 10.191406 h 4.458984 c 0.05765,0 0.106098,0.01457 0.144531,0.04492 0.04484,0.02429 0.07985,0.0645 0.105469,0.119141 0.03203,0.04857 0.05359,0.114218 0.06641,0.199219 0.01281,0.085 0.01953,0.189117 0.01953,0.310546 0,0.12143 -0.0067,0.223593 -0.01953,0.308594 -0.01281,0.07893 -0.03438,0.150223 -0.06641,0.210938 -0.02562,0.05464 -0.06063,0.0966 -0.105469,0.126953 -0.03843,0.02429 -0.08688,0.03711 -0.144531,0.03711 H 9.4550781 c -0.1473261,0 -0.2873598,-0.04565 -0.421875,-0.136719 C 8.9050934,17.596216 8.8398438,17.428194 8.8398438,17.191406 V 6.28125 c 0,-0.048572 0.01344,-0.090524 0.039062,-0.1269531 0.025622,-0.036429 0.070711,-0.063817 0.1347657,-0.082031 0.064055,-0.024286 0.1508723,-0.042544 0.2597656,-0.054687 0.1088933,-0.018214 0.2388465,-0.027344 0.3925781,-0.027344 z"
       transform="matrix(0.26458334,0,0,0.26458334,0,290.64999)"
       id="path3680"
       inkscape:connector-curvature="0" />
  </g>
</svg>
