<?xml version="1.0" encoding="UTF-8" standalone="no"?>
<!-- Created with Inkscape (http://www.inkscape.org/) -->

<svg
   xmlns:dc="http://purl.org/dc/elements/1.1/"
   xmlns:cc="http://creativecommons.org/ns#"
   xmlns:rdf="http://www.w3.org/1999/02/22-rdf-syntax-ns#"
   xmlns:svg="http://www.w3.org/2000/svg"
   xmlns="http://www.w3.org/2000/svg"
   xmlns:sodipodi="http://sodipodi.sourceforge.net/DTD/sodipodi-0.dtd"
   xmlns:inkscape="http://www.inkscape.org/namespaces/inkscape"
   width="24"
   height="24"
   viewBox="0 0 6.3499999 6.3500002"
   version="1.1"
   id="svg3714"
   sodipodi:docname="avatar-s.svg"
   inkscape:version="0.92.0 r15299">
  <defs
     id="defs3708" />
  <sodipodi:namedview
     id="base"
     pagecolor="#ffffff"
     bordercolor="#666666"
     borderopacity="1.0"
     inkscape:pageopacity="0.0"
     inkscape:pageshadow="2"
     inkscape:zoom="16"
     inkscape:cx="18.412083"
     inkscape:cy="2.8647792"
     inkscape:document-units="px"
     inkscape:current-layer="layer1"
     showgrid="false"
     units="px"
     inkscape:window-width="943"
     inkscape:window-height="807"
     inkscape:window-x="589"
     inkscape:window-y="106"
     inkscape:window-maximized="0"
     showguides="true"
     inkscape:guide-bbox="true">
    <sodipodi:guide
       position="3.175,3.175"
       orientation="-0.70710678,0.70710678"
       id="guide3783"
       inkscape:locked="false"
       inkscape:label=""
       inkscape:color="rgb(0,0,255)" />
    <sodipodi:guide
       position="3.175,3.175"
       orientation="1,0"
       id="guide3787"
       inkscape:locked="false"
       inkscape:label=""
       inkscape:color="rgb(0,0,255)" />
    <sodipodi:guide
       position="3.175,3.175"
       orientation="0,1"
       id="guide3789"
       inkscape:locked="false"
       inkscape:label=""
       inkscape:color="rgb(0,0,255)" />
    <sodipodi:guide
       position="3.175,3.175"
       orientation="0.70710678,0.70710678"
       id="guide3791"
       inkscape:locked="false"
       inkscape:label=""
       inkscape:color="rgb(0,0,255)" />
  </sodipodi:namedview>
  <metadata
     id="metadata3711">
    <rdf:RDF>
      <cc:Work
         rdf:about="">
        <dc:format>image/svg+xml</dc:format>
        <dc:type
           rdf:resource="http://purl.org/dc/dcmitype/StillImage" />
        <dc:title></dc:title>
      </cc:Work>
    </rdf:RDF>
  </metadata>
  <g
     inkscape:label="Layer 1"
     inkscape:groupmode="layer"
     id="layer1"
     transform="translate(0,-290.64999)">
    <path
       style="fill:#000000;stroke-width:0.55553544"
       d="M 12,2 A 9.9999996,9.9999996 0 0 0 2,12 9.9999996,9.9999996 0 0 0 12,22 9.9999996,9.9999996 0 0 0 22,12 9.9999996,9.9999996 0 0 0 12,2 Z m 0.193359,3.8710938 c 0.275436,0 0.55269,0.023694 0.828125,0.072266 0.281842,0.0425 0.543701,0.1046644 0.78711,0.1835937 0.249814,0.072858 0.469945,0.1567625 0.662109,0.2539063 0.192165,0.091072 0.317351,0.1678008 0.375,0.2285156 0.06405,0.054643 0.105784,0.1002898 0.125,0.1367188 0.01922,0.030357 0.03602,0.07231 0.04883,0.1269531 0.01281,0.048572 0.02289,0.1087828 0.0293,0.1816406 0.0064,0.072858 0.0078,0.1678449 0.0078,0.2832031 0,0.1092867 -0.0048,0.2060149 -0.01758,0.2910156 -0.0064,0.085001 -0.01985,0.1580352 -0.03906,0.21875 -0.01922,0.054643 -0.0475,0.096596 -0.08594,0.1269532 -0.03203,0.024286 -0.07039,0.037109 -0.115234,0.037109 -0.07046,0 -0.184159,-0.041952 -0.33789,-0.1269532 C 14.313611,7.7997648 14.131849,7.7047777 13.914062,7.6015625 13.696276,7.4922758 13.437777,7.3955477 13.136719,7.3105469 c -0.294653,-0.091072 -0.628482,-0.1367188 -1,-0.1367188 -0.345896,0 -0.646125,0.045647 -0.902344,0.1367188 -0.256219,0.085001 -0.468223,0.1999875 -0.634766,0.3457031 -0.166542,0.1457156 -0.291728,0.3191723 -0.375,0.5195312 -0.08327,0.200359 -0.125,0.4120739 -0.125,0.6367188 0,0.3278601 0.0801,0.6108684 0.240235,0.8476562 0.160137,0.2367879 0.37214,0.4467618 0.634765,0.6289058 0.269031,0.182145 0.572619,0.348213 0.91211,0.5 0.33949,0.151788 0.684807,0.306986 1.037109,0.464844 0.352302,0.151787 0.699572,0.32155 1.039063,0.509766 0.33949,0.182144 0.639718,0.401248 0.902343,0.65625 0.269031,0.248931 0.484394,0.546503 0.644532,0.892578 0.166542,0.340003 0.25,0.743433 0.25,1.210938 0,0.552505 -0.110339,1.043533 -0.328125,1.474609 -0.211381,0.431075 -0.508249,0.799941 -0.892579,1.103515 -0.377923,0.297503 -0.826858,0.522042 -1.345703,0.673829 -0.512438,0.151787 -1.066399,0.226562 -1.662109,0.226562 -0.416357,0 -0.803402,-0.03282 -1.162109,-0.09961 C 10.016839,17.835557 9.6998101,17.753394 9.4179688,17.65625 9.1425329,17.559106 8.9089614,17.458684 8.7167969,17.355469 8.5310378,17.252254 8.3991314,17.164655 8.3222656,17.091797 8.2518053,17.018939 8.196636,16.927646 8.1582031,16.818359 c -0.032027,-0.115358 -0.046875,-0.266862 -0.046875,-0.455078 0,-0.133572 0.00672,-0.243124 0.019531,-0.328125 0.012811,-0.09107 0.031019,-0.164106 0.056641,-0.21875 0.025622,-0.05464 0.05727,-0.09116 0.095703,-0.109375 0.038433,-0.02429 0.083522,-0.03711 0.1347657,-0.03711 0.089677,0 0.2148628,0.05303 0.375,0.15625 0.1665426,0.103215 0.3785462,0.214508 0.6347656,0.335937 0.2562194,0.12143 0.5631678,0.236417 0.9218746,0.345703 0.365113,0.103216 0.783807,0.15625 1.257813,0.15625 0.358707,0 0.685816,-0.04565 0.980469,-0.136718 0.301057,-0.09107 0.55815,-0.218883 0.769531,-0.382813 0.217786,-0.170001 0.384701,-0.376281 0.5,-0.61914 0.115299,-0.24286 0.171875,-0.51848 0.171875,-0.828125 0,-0.333932 -0.0801,-0.620634 -0.240235,-0.857422 -0.160137,-0.236788 -0.37214,-0.443068 -0.634765,-0.619141 C 12.891672,13.038559 12.591444,12.874231 12.251953,12.728516 11.918868,12.576729 11.576911,12.425225 11.224609,12.273438 10.872308,12.115579 10.528398,11.942122 10.195312,11.753906 9.8622273,11.56569 9.5653593,11.344846 9.3027344,11.089844 9.0401095,10.834841 8.8247457,10.537269 8.6582031,10.197266 8.498066,9.851191 8.4179687,9.4386316 8.4179688,8.9589844 c 0,-0.4917902 0.093538,-0.9299965 0.2792968,-1.3125 0.1921646,-0.388575 0.4540242,-0.7115825 0.7871094,-0.9726563 0.3394907,-0.2610738 0.739977,-0.4601773 1.201172,-0.59375 0.4676,-0.1396441 0.969752,-0.2089843 1.507812,-0.2089843 z"
       transform="matrix(0.26458334,0,0,0.26458334,0,290.64999)"
       id="path3680"
       inkscape:connector-curvature="0" />
  </g>
</svg>
