<?xml version="1.0" encoding="UTF-8" standalone="no"?>
<!-- Created with Inkscape (http://www.inkscape.org/) -->

<svg
   xmlns:dc="http://purl.org/dc/elements/1.1/"
   xmlns:cc="http://creativecommons.org/ns#"
   xmlns:rdf="http://www.w3.org/1999/02/22-rdf-syntax-ns#"
   xmlns:svg="http://www.w3.org/2000/svg"
   xmlns="http://www.w3.org/2000/svg"
   xmlns:sodipodi="http://sodipodi.sourceforge.net/DTD/sodipodi-0.dtd"
   xmlns:inkscape="http://www.inkscape.org/namespaces/inkscape"
   width="24"
   height="24"
   viewBox="0 0 6.3499999 6.3500002"
   version="1.1"
   id="svg3714"
   sodipodi:docname="avatar-ø.svg"
   inkscape:version="0.92.0 r15299">
  <defs
     id="defs3708" />
  <sodipodi:namedview
     id="base"
     pagecolor="#ffffff"
     bordercolor="#666666"
     borderopacity="1.0"
     inkscape:pageopacity="0.0"
     inkscape:pageshadow="2"
     inkscape:zoom="16"
     inkscape:cx="19.8316"
     inkscape:cy="4.3649707"
     inkscape:document-units="px"
     inkscape:current-layer="layer1"
     showgrid="false"
     units="px"
     inkscape:window-width="943"
     inkscape:window-height="807"
     inkscape:window-x="589"
     inkscape:window-y="106"
     inkscape:window-maximized="0"
     showguides="true"
     inkscape:guide-bbox="true">
    <sodipodi:guide
       position="3.175,3.175"
       orientation="-0.70710678,0.70710678"
       id="guide3783"
       inkscape:locked="false"
       inkscape:label=""
       inkscape:color="rgb(0,0,255)" />
    <sodipodi:guide
       position="3.175,3.175"
       orientation="1,0"
       id="guide3787"
       inkscape:locked="false"
       inkscape:label=""
       inkscape:color="rgb(0,0,255)" />
    <sodipodi:guide
       position="3.175,3.175"
       orientation="0,1"
       id="guide3789"
       inkscape:locked="false"
       inkscape:label=""
       inkscape:color="rgb(0,0,255)" />
    <sodipodi:guide
       position="3.175,3.175"
       orientation="0.70710678,0.70710678"
       id="guide3791"
       inkscape:locked="false"
       inkscape:label=""
       inkscape:color="rgb(0,0,255)" />
  </sodipodi:namedview>
  <metadata
     id="metadata3711">
    <rdf:RDF>
      <cc:Work
         rdf:about="">
        <dc:format>image/svg+xml</dc:format>
        <dc:type
           rdf:resource="http://purl.org/dc/dcmitype/StillImage" />
        <dc:title></dc:title>
      </cc:Work>
    </rdf:RDF>
  </metadata>
  <g
     inkscape:label="Layer 1"
     inkscape:groupmode="layer"
     id="layer1"
     transform="translate(0,-290.64999)">
    <path
       style="fill:#000000;stroke-width:0.55553544"
       d="M 12,2 A 9.9999996,9.9999996 0 0 0 2,12 9.9999996,9.9999996 0 0 0 12,22 9.9999996,9.9999996 0 0 0 22,12 9.9999996,9.9999996 0 0 0 12,2 Z m 4.128906,1.96875 c 0.160137,0 0.285323,0.01087 0.375,0.035156 0.09608,0.024286 0.166099,0.059062 0.210938,0.1015626 0.04484,0.036429 0.065,0.083816 0.05859,0.1445312 0,0.054643 -0.02016,0.1185484 -0.05859,0.1914062 l -1.220703,2.3496094 c 0.345896,0.2428594 0.648077,0.5313028 0.904297,0.8652344 0.256219,0.3339316 0.46963,0.7099738 0.642578,1.1289062 0.179353,0.4189325 0.31462,0.8808325 0.404296,1.3847658 0.08968,0.497862 0.134766,1.041925 0.134766,1.630859 0,0.953223 -0.121826,1.811165 -0.365234,2.576172 -0.237003,0.765007 -0.595761,1.418622 -1.076172,1.958985 -0.480412,0.53429 -1.076101,0.94685 -1.78711,1.238281 -0.711008,0.28536 -1.533549,0.427734 -2.46875,0.427734 -0.39714,0 -0.765978,-0.02739 -1.105468,-0.08203 -0.339491,-0.05464 -0.65652,-0.133113 -0.9511721,-0.236328 l -1.0664063,2.021484 c -0.019216,0.03643 -0.050865,0.06925 -0.095703,0.09961 -0.044838,0.03036 -0.1067279,0.05231 -0.1835937,0.06445 -0.07046,0.01821 -0.1572779,0.03104 -0.2597657,0.03711 -0.096082,0.01214 -0.2111879,0.01758 -0.3457031,0.01758 -0.1601371,0 -0.2886833,-0.01282 -0.3847656,-0.03711 -0.096082,-0.01821 -0.1660991,-0.04734 -0.2109375,-0.08984 -0.044838,-0.0425 -0.066406,-0.09554 -0.066406,-0.15625 0.00641,-0.05464 0.027973,-0.114854 0.066406,-0.181641 L 8.5097656,17.101562 C 8.1574639,16.864775 7.8505155,16.578072 7.5878906,16.244141 7.3316712,15.910209 7.1163075,15.530473 6.9433594,15.105469 6.7704113,14.680465 6.6385049,14.211389 6.5488281,13.695312 6.4655568,13.179236 6.4238281,12.61322 6.4238281,12 c 0,-0.928937 0.1184658,-1.772314 0.3554688,-2.53125 C 7.0162998,8.7098145 7.3716972,8.0672816 7.8457031,7.5390625 8.319709,7.0047719 8.9139911,6.5939535 9.625,6.3085938 c 0.717414,-0.2914313 1.550035,-0.4375001 2.498047,-0.4375 0.390734,0 0.750899,0.031082 1.083984,0.091797 0.333085,0.054643 0.660195,0.1368071 0.980469,0.2460938 l 1.039062,-2.0136719 c 0.02562,-0.0425 0.06063,-0.079018 0.105469,-0.109375 0.04484,-0.030357 0.101415,-0.054051 0.171875,-0.072266 0.07687,-0.018215 0.167044,-0.031038 0.269532,-0.037109 0.102487,-0.00607 0.220953,-0.00781 0.355468,-0.00781 z m -4.113281,3.2226562 c -0.72382,0 -1.330996,0.1278102 -1.824219,0.3828126 C 9.6981839,7.8231496 9.2976977,8.1626746 8.9902344,8.59375 8.6891766,9.0187539 8.4704527,9.5171711 8.3359375,10.087891 c -0.1281097,0.570719 -0.1914062,1.174994 -0.1914063,1.8125 0,0.783221 0.086818,1.497047 0.2597657,2.140625 0.1793536,0.643577 0.4728614,1.180252 0.8828125,1.611328 L 13.564453,7.484375 C 13.353072,7.3872313 13.117548,7.3141969 12.861328,7.265625 12.611514,7.2170531 12.329494,7.1914062 12.015625,7.1914062 Z m 2.710937,1.0488282 -4.265624,8.1406246 c 0.211381,0.09107 0.438232,0.160413 0.68164,0.208985 0.249814,0.04857 0.528474,0.07422 0.835938,0.07422 0.730225,0 1.340762,-0.12781 1.833984,-0.382812 0.499628,-0.255002 0.900114,-0.598221 1.201172,-1.029297 0.307463,-0.437147 0.526187,-0.944693 0.654297,-1.521484 0.128109,-0.576791 0.191406,-1.190195 0.191406,-1.839844 0,-0.758936 -0.08822,-1.447115 -0.267578,-2.0664062 C 15.418849,9.2049274 15.130108,8.6773812 14.726562,8.2402344 Z"
       transform="matrix(0.26458334,0,0,0.26458334,0,290.64999)"
       id="path3680"
       inkscape:connector-curvature="0" />
  </g>
</svg>
