<?xml version="1.0" encoding="UTF-8" standalone="no"?>
<svg
   xmlns:dc="http://purl.org/dc/elements/1.1/"
   xmlns:cc="http://creativecommons.org/ns#"
   xmlns:rdf="http://www.w3.org/1999/02/22-rdf-syntax-ns#"
   xmlns:svg="http://www.w3.org/2000/svg"
   xmlns="http://www.w3.org/2000/svg"
   id="svg3714"
   version="1.1"
   viewBox="0 0 6.3499999 6.3500002"
   height="24"
   width="24">
  <defs
     id="defs3708" />
  <g
     transform="translate(0,-290.64999)"
     id="layer1">
    <g
       id="text3824"
       style="font-style:normal;font-weight:normal;font-size:3.26628304px;line-height:2.0414269px;font-family:sans-serif;letter-spacing:0px;word-spacing:0px;fill:#000000;fill-opacity:1;stroke:none;stroke-width:0.08165707"
       aria-label="vs">
      <path
         id="path3826"
         style="stroke-width:0.08165707"
         d="m 3.1284987,292.88412 -0.7208789,1.78147 H 2.1061904 l -0.7160943,-1.78147 h 0.3253524 l 0.5518232,1.41784 0.5470387,-1.41784 z" />
      <path
         id="path3828"
         style="stroke-width:0.08165707"
         d="m 4.7935376,294.15204 q 0,0.24402 -0.2025479,0.40031 -0.2009529,0.1563 -0.5502283,0.1563 -0.1977632,0 -0.3636292,-0.0462 -0.164271,-0.0478 -0.2759116,-0.10367 v -0.33651 h 0.015949 q 0.1419429,0.10685 0.3157832,0.17065 0.1738402,0.0622 0.3333267,0.0622 0.1977633,0 0.3094038,-0.0638 0.1116405,-0.0638 0.1116405,-0.20095 0,-0.10526 -0.060605,-0.15949 -0.060605,-0.0542 -0.2328503,-0.0925 -0.063795,-0.0144 -0.1674608,-0.0335 -0.1020713,-0.0191 -0.1865992,-0.0415 -0.2344451,-0.0622 -0.3333267,-0.18181 -0.097287,-0.12121 -0.097287,-0.29665 0,-0.11004 0.044656,-0.20733 0.046251,-0.0973 0.1387532,-0.17384 0.089312,-0.075 0.2264708,-0.11802 0.1387532,-0.0447 0.3094037,-0.0447 0.1594865,0 0.3221627,0.0399 0.1642711,0.0383 0.2727219,0.0941 v 0.32057 h -0.015949 q -0.1148303,-0.0845 -0.2791014,-0.14194 -0.164271,-0.059 -0.3221627,-0.059 -0.164271,0 -0.2775064,0.0638 -0.1132354,0.0622 -0.1132354,0.1866 0,0.11005 0.068579,0.16587 0.066984,0.0558 0.2169016,0.0909 0.082933,0.0191 0.1850043,0.0383 0.1036662,0.0191 0.1722454,0.0351 0.2089273,0.0478 0.3221627,0.16427 0.1132354,0.11802 0.1132354,0.31259 z" />
    </g>
  </g>
</svg>
