<?xml version="1.0" encoding="UTF-8" standalone="no"?>
<!-- Created with Inkscape (http://www.inkscape.org/) -->

<svg
   xmlns:dc="http://purl.org/dc/elements/1.1/"
   xmlns:cc="http://creativecommons.org/ns#"
   xmlns:rdf="http://www.w3.org/1999/02/22-rdf-syntax-ns#"
   xmlns:svg="http://www.w3.org/2000/svg"
   xmlns="http://www.w3.org/2000/svg"
   xmlns:sodipodi="http://sodipodi.sourceforge.net/DTD/sodipodi-0.dtd"
   xmlns:inkscape="http://www.inkscape.org/namespaces/inkscape"
   width="24"
   height="24"
   viewBox="0 0 6.3499999 6.3500002"
   version="1.1"
   id="svg3692"
   inkscape:version="0.92.0 r15299"
   sodipodi:docname="soccer2.svg">
  <defs
     id="defs3686" />
  <sodipodi:namedview
     id="base"
     pagecolor="#cccccc"
     bordercolor="#666666"
     borderopacity="1.0"
     inkscape:pageopacity="1"
     inkscape:pageshadow="2"
     inkscape:zoom="63.356767"
     inkscape:cx="12.222352"
     inkscape:cy="13.205901"
     inkscape:document-units="mm"
     inkscape:current-layer="layer1"
     showgrid="false"
     units="px"
     inkscape:pagecheckerboard="true"
     inkscape:window-width="2560"
     inkscape:window-height="1377"
     inkscape:window-x="-8"
     inkscape:window-y="-8"
     inkscape:window-maximized="1" />
  <metadata
     id="metadata3689">
    <rdf:RDF>
      <cc:Work
         rdf:about="">
        <dc:format>image/svg+xml</dc:format>
        <dc:type
           rdf:resource="http://purl.org/dc/dcmitype/StillImage" />
        <dc:title></dc:title>
      </cc:Work>
    </rdf:RDF>
  </metadata>
  <g
     inkscape:label="Layer 1"
     inkscape:groupmode="layer"
     id="layer1"
     transform="translate(0,-290.64998)">
    <path
       d="M 12,2 A 9.9999996,9.9999996 0 0 0 2,12 9.9999996,9.9999996 0 0 0 12,22 9.9999996,9.9999996 0 0 0 22,12 9.9999996,9.9999996 0 0 0 12,2 Z m 0,3 a 6.9999999,6.9999999 0 0 1 7,7 6.9999999,6.9999999 0 0 1 -7,7 6.9999999,6.9999999 0 0 1 -7,-7 6.9999999,6.9999999 0 0 1 7,-7 z m -0.002,0.3261719 c -0.885294,0 -1.769279,0.1783911 -2.5839845,0.5195312 C 9.03171,6.0059551 8.6541608,6.1994654 8.3144531,6.4375 8.2497476,6.4832323 8.1882353,6.5336533 8.125,6.5820312 8.0999795,6.6009289 8.0231029,6.6754011 7.9863281,6.6640625 8.2216226,6.740409 8.6992432,6.8970134 9.0683594,7.0292969 9.3095348,6.8913441 9.6657161,6.7095592 10.117188,6.5507812 c 0.499998,-0.1765039 1.012646,-0.2895126 1.521484,-0.3378906 0.389706,-0.034016 0.778271,-0.033762 1.162109,0.00781 0.46175,-0.3942047 0.735939,-0.5690696 0.960938,-0.6601562 -0.569103,-0.1560945 -1.173966,-0.234375 -1.763672,-0.234375 z m 0.267578,1.3007812 v 0.00195 c -0.191543,-0.00234 -0.383525,0.00637 -0.576172,0.021484 -0.472058,0.044221 -0.945436,0.1492244 -1.410156,0.3125 -0.7970586,0.2777953 -1.2944062,0.637677 -1.2988282,0.640625 0,0 -0.7615815,0.9840685 -0.921875,2.0957032 l 2.3730472,2.4511727 2.873047,-0.550782 1.197265,-3.2675783 -1.664062,-1.6660156 c -0.189706,-0.022677 -0.380722,-0.035283 -0.572266,-0.039063 z m 3.724609,0.019531 c 0.552941,0.6146267 0.758984,1.2003601 0.833985,1.5722656 0.410294,0.3338079 0.771761,0.7079147 1.076172,1.1152344 0.192313,0.256865 0.362405,0.528296 0.507812,0.8085939 0,-0.0038 4.21e-4,-0.0081 0.002,-0.01563 C 18.157168,9.2608795 17.726838,8.4552743 17.15625,7.7597656 16.848897,7.3862727 16.501976,7.0461881 16.121094,6.7460938 c -0.03382,-0.024945 -0.06578,-0.049715 -0.09961,-0.076172 -0.01028,-0.00756 -0.02097,-0.015879 -0.03125,-0.023437 z m -1.082031,1.8554687 -1.201172,3.2753912 1.326172,2.320312 2.464844,-0.226562 c 0.0088,-0.01814 0.01854,-0.03371 0.02734,-0.04883 0.185294,-0.283805 0.61839,-1.097285 0.80664,-2.732422 C 18.152609,10.561959 17.889015,10.061797 17.550781,9.6074219 17.280193,9.2456833 16.961857,8.9109813 16.601562,8.609375 Z M 5.9199219,9.234375 c -0.3838254,0.84257 -0.5957031,1.7785 -0.5957031,2.763672 -10e-8,0.320542 0.022288,0.636084 0.066406,0.943359 0.033823,0.07786 0.079364,0.174543 0.1367188,0.289063 -0.038237,-0.495534 -0.022749,-0.987955 0.050781,-1.462891 0.069116,-0.444094 0.1868582,-0.875884 0.3515625,-1.289062 -0.030879,-0.346999 -0.05241,-0.8029945 -0.00977,-1.244141 z m 1.84375,0.794922 c -0.3544116,0.110286 -0.9966454,0.349019 -1.4804688,0.757812 -0.1235301,0.333808 -0.211694,0.681898 -0.2675781,1.039063 -0.073527,0.466129 -0.087087,0.951768 -0.042969,1.441406 0.039708,0.433777 0.1179009,0.796229 0.1855469,1.044922 0.360296,0.527849 0.8346511,1.093087 1.4140625,1.519531 l 2.2753906,-0.761719 0.244141,-2.636718 z m 9.7187501,4.285156 -2.47461,0.228516 -1.86914,1.945312 0.365234,1.515625 c 0.0044,0.02041 0.611628,-0.08033 0.660156,-0.08789 0.635309,-0.104391 1.350943,-0.232934 1.884766,-0.609375 0.569117,-0.402898 1.041912,-0.933387 1.4375,-1.503907 0.03823,-0.05442 0.07505,-0.110078 0.113281,-0.166015 -0.02941,-0.351459 -0.07894,-0.928175 -0.117187,-1.322266 z m -7.421875,1.148438 -2.3007814,0.767578 c -0.00294,0.255836 0.065964,0.959364 0.058594,0.970703 0.3970586,0.320504 0.8321923,0.593729 1.2910156,0.814453 0.5250146,0.253039 1.0827208,0.437583 1.6562498,0.544922 0.520588,-0.01909 1.803194,-0.09942 2.310547,-0.431641 0,0 10e-4,-9.64e-4 0.0039,-0.0039 l -0.365234,-1.513672 z"
       transform="matrix(0.26458333,0,0,0.26458333,0,290.64998)"
       id="path3742"
       />
  </g>
</svg>
